<?xml version="1.0" encoding="utf-8" standalone="no"?>
<!DOCTYPE svg PUBLIC "-//W3C//DTD SVG 1.1//EN"
  "http://www.w3.org/Graphics/SVG/1.1/DTD/svg11.dtd">
<svg xmlns:xlink="http://www.w3.org/1999/xlink" width="1080pt" height="864pt" viewBox="0 0 1080 864" xmlns="http://www.w3.org/2000/svg" version="1.1">
 <metadata>
  <rdf:RDF xmlns:dc="http://purl.org/dc/elements/1.1/" xmlns:cc="http://creativecommons.org/ns#" xmlns:rdf="http://www.w3.org/1999/02/22-rdf-syntax-ns#">
   <cc:Work>
    <dc:type rdf:resource="http://purl.org/dc/dcmitype/StillImage"/>
    <dc:date>2024-04-19T01:23:41.262936</dc:date>
    <dc:format>image/svg+xml</dc:format>
    <dc:creator>
     <cc:Agent>
      <dc:title>Matplotlib v3.7.0, https://matplotlib.org/</dc:title>
     </cc:Agent>
    </dc:creator>
   </cc:Work>
  </rdf:RDF>
 </metadata>
 <defs>
  <style type="text/css">*{stroke-linejoin: round; stroke-linecap: butt}</style>
 </defs>
 <g id="figure_1">
  <g id="patch_1">
   <path d="M 0 864 
L 1080 864 
L 1080 0 
L 0 0 
z
" style="fill: #ffffff"/>
  </g>
  <g id="axes_1">
   <g id="patch_2">
    <path d="M 340.690909 228.179568 
C 340.690909 196.211512 330.932646 164.992523 312.726623 138.715208 
C 294.520599 112.437892 268.720012 92.333696 238.789796 81.102546 
C 208.859579 69.871397 176.202366 68.039624 145.203911 75.853229 
C 114.205457 83.666834 86.318456 100.759644 65.288041 124.836152 
L 183.59995 228.179568 
z
" style="fill: #1f77b4"/>
   </g>
   <g id="patch_3">
    <path d="M 65.288041 124.836152 
C 50.222974 142.083278 39.109874 162.417823 32.729469 184.411232 
C 26.349063 206.40464 24.854347 229.52953 28.350328 252.161316 
L 183.59995 228.179568 
z
" style="fill: #ff7f0e"/>
   </g>
   <g id="patch_4">
    <path d="M 28.350328 252.161316 
C 30.081915 263.371018 33.022505 274.36028 37.12062 284.936728 
C 41.218735 295.513177 46.450322 305.614733 52.723799 315.064564 
L 183.59995 228.179568 
z
" style="fill: #2ca02c"/>
   </g>
   <g id="patch_5">
    <path d="M 52.723799 315.064564 
C 61.637994 328.492147 72.565786 340.468244 85.122935 350.571753 
C 97.680083 360.675261 111.717663 368.786357 126.742088 374.619839 
L 183.59995 228.179568 
z
" style="fill: #d62728"/>
   </g>
   <g id="patch_6">
    <path d="M 126.742088 374.619839 
C 134.095834 377.475053 141.654214 379.772294 149.35306 381.492059 
C 157.051906 383.211825 164.869369 384.349234 172.739081 384.894631 
L 183.59995 228.179568 
z
" style="fill: #9467bd"/>
   </g>
   <g id="patch_7">
    <path d="M 172.739081 384.894631 
C 178.071415 385.264179 183.419138 385.361333 188.761377 385.185712 
C 194.103615 385.010091 199.433411 384.561924 204.729962 383.842961 
L 183.59995 228.179568 
z
" style="fill: #8c564b"/>
   </g>
   <g id="patch_8">
    <path d="M 204.729962 383.842961 
C 221.161498 381.612517 237.136722 376.794351 252.061386 369.567691 
C 266.986051 362.34103 280.672777 352.796605 292.612444 341.289451 
L 183.59995 228.179568 
z
" style="fill: #e377c2"/>
   </g>
   <g id="patch_9">
    <path d="M 292.612444 341.289451 
C 300.563453 333.626466 307.684348 325.146426 313.856948 315.990068 
C 320.029548 306.833711 325.219516 297.05197 329.340719 286.807187 
L 183.59995 228.179568 
z
" style="fill: #7f7f7f"/>
   </g>
   <g id="patch_10">
    <path d="M 329.340719 286.807187 
C 333.080728 277.510003 335.922533 267.876235 337.82726 258.037672 
C 339.731986 248.199109 340.690909 238.200818 340.690909 228.179575 
L 183.59995 228.179568 
z
" style="fill: #bcbd22"/>
   </g>
   <g id="matplotlib.axis_1"/>
   <g id="matplotlib.axis_2"/>
   <g id="text_1">
    <!-- 38.6% -->
    <g transform="translate(200.830264 142.69273) scale(0.1 -0.1)">
     <defs>
      <path id="DejaVuSans-33" d="M 2597 2516 
Q 3050 2419 3304 2112 
Q 3559 1806 3559 1356 
Q 3559 666 3084 287 
Q 2609 -91 1734 -91 
Q 1441 -91 1130 -33 
Q 819 25 488 141 
L 488 750 
Q 750 597 1062 519 
Q 1375 441 1716 441 
Q 2309 441 2620 675 
Q 2931 909 2931 1356 
Q 2931 1769 2642 2001 
Q 2353 2234 1838 2234 
L 1294 2234 
L 1294 2753 
L 1863 2753 
Q 2328 2753 2575 2939 
Q 2822 3125 2822 3475 
Q 2822 3834 2567 4026 
Q 2313 4219 1838 4219 
Q 1578 4219 1281 4162 
Q 984 4106 628 3988 
L 628 4550 
Q 988 4650 1302 4700 
Q 1616 4750 1894 4750 
Q 2613 4750 3031 4423 
Q 3450 4097 3450 3541 
Q 3450 3153 3228 2886 
Q 3006 2619 2597 2516 
z
" transform="scale(0.015625)"/>
      <path id="DejaVuSans-38" d="M 2034 2216 
Q 1584 2216 1326 1975 
Q 1069 1734 1069 1313 
Q 1069 891 1326 650 
Q 1584 409 2034 409 
Q 2484 409 2743 651 
Q 3003 894 3003 1313 
Q 3003 1734 2745 1975 
Q 2488 2216 2034 2216 
z
M 1403 2484 
Q 997 2584 770 2862 
Q 544 3141 544 3541 
Q 544 4100 942 4425 
Q 1341 4750 2034 4750 
Q 2731 4750 3128 4425 
Q 3525 4100 3525 3541 
Q 3525 3141 3298 2862 
Q 3072 2584 2669 2484 
Q 3125 2378 3379 2068 
Q 3634 1759 3634 1313 
Q 3634 634 3220 271 
Q 2806 -91 2034 -91 
Q 1263 -91 848 271 
Q 434 634 434 1313 
Q 434 1759 690 2068 
Q 947 2378 1403 2484 
z
M 1172 3481 
Q 1172 3119 1398 2916 
Q 1625 2713 2034 2713 
Q 2441 2713 2670 2916 
Q 2900 3119 2900 3481 
Q 2900 3844 2670 4047 
Q 2441 4250 2034 4250 
Q 1625 4250 1398 4047 
Q 1172 3844 1172 3481 
z
" transform="scale(0.015625)"/>
      <path id="DejaVuSans-2e" d="M 684 794 
L 1344 794 
L 1344 0 
L 684 0 
L 684 794 
z
" transform="scale(0.015625)"/>
      <path id="DejaVuSans-36" d="M 2113 2584 
Q 1688 2584 1439 2293 
Q 1191 2003 1191 1497 
Q 1191 994 1439 701 
Q 1688 409 2113 409 
Q 2538 409 2786 701 
Q 3034 994 3034 1497 
Q 3034 2003 2786 2293 
Q 2538 2584 2113 2584 
z
M 3366 4563 
L 3366 3988 
Q 3128 4100 2886 4159 
Q 2644 4219 2406 4219 
Q 1781 4219 1451 3797 
Q 1122 3375 1075 2522 
Q 1259 2794 1537 2939 
Q 1816 3084 2150 3084 
Q 2853 3084 3261 2657 
Q 3669 2231 3669 1497 
Q 3669 778 3244 343 
Q 2819 -91 2113 -91 
Q 1303 -91 875 529 
Q 447 1150 447 2328 
Q 447 3434 972 4092 
Q 1497 4750 2381 4750 
Q 2619 4750 2861 4703 
Q 3103 4656 3366 4563 
z
" transform="scale(0.015625)"/>
      <path id="DejaVuSans-25" d="M 4653 2053 
Q 4381 2053 4226 1822 
Q 4072 1591 4072 1178 
Q 4072 772 4226 539 
Q 4381 306 4653 306 
Q 4919 306 5073 539 
Q 5228 772 5228 1178 
Q 5228 1588 5073 1820 
Q 4919 2053 4653 2053 
z
M 4653 2450 
Q 5147 2450 5437 2106 
Q 5728 1763 5728 1178 
Q 5728 594 5436 251 
Q 5144 -91 4653 -91 
Q 4153 -91 3862 251 
Q 3572 594 3572 1178 
Q 3572 1766 3864 2108 
Q 4156 2450 4653 2450 
z
M 1428 4353 
Q 1159 4353 1004 4120 
Q 850 3888 850 3481 
Q 850 3069 1003 2837 
Q 1156 2606 1428 2606 
Q 1700 2606 1854 2837 
Q 2009 3069 2009 3481 
Q 2009 3884 1853 4118 
Q 1697 4353 1428 4353 
z
M 4250 4750 
L 4750 4750 
L 1831 -91 
L 1331 -91 
L 4250 4750 
z
M 1428 4750 
Q 1922 4750 2215 4408 
Q 2509 4066 2509 3481 
Q 2509 2891 2217 2550 
Q 1925 2209 1428 2209 
Q 931 2209 642 2551 
Q 353 2894 353 3481 
Q 353 4063 643 4406 
Q 934 4750 1428 4750 
z
" transform="scale(0.015625)"/>
     </defs>
     <use xlink:href="#DejaVuSans-33"/>
     <use xlink:href="#DejaVuSans-38" x="63.623047"/>
     <use xlink:href="#DejaVuSans-2e" x="127.246094"/>
     <use xlink:href="#DejaVuSans-36" x="159.033203"/>
     <use xlink:href="#DejaVuSans-25" x="222.65625"/>
    </g>
   </g>
   <g id="text_2">
    <!-- 13.9% -->
    <g transform="translate(77.194067 204.677941) scale(0.1 -0.1)">
     <defs>
      <path id="DejaVuSans-31" d="M 794 531 
L 1825 531 
L 1825 4091 
L 703 3866 
L 703 4441 
L 1819 4666 
L 2450 4666 
L 2450 531 
L 3481 531 
L 3481 0 
L 794 0 
L 794 531 
z
" transform="scale(0.015625)"/>
      <path id="DejaVuSans-39" d="M 703 97 
L 703 672 
Q 941 559 1184 500 
Q 1428 441 1663 441 
Q 2288 441 2617 861 
Q 2947 1281 2994 2138 
Q 2813 1869 2534 1725 
Q 2256 1581 1919 1581 
Q 1219 1581 811 2004 
Q 403 2428 403 3163 
Q 403 3881 828 4315 
Q 1253 4750 1959 4750 
Q 2769 4750 3195 4129 
Q 3622 3509 3622 2328 
Q 3622 1225 3098 567 
Q 2575 -91 1691 -91 
Q 1453 -91 1209 -44 
Q 966 3 703 97 
z
M 1959 2075 
Q 2384 2075 2632 2365 
Q 2881 2656 2881 3163 
Q 2881 3666 2632 3958 
Q 2384 4250 1959 4250 
Q 1534 4250 1286 3958 
Q 1038 3666 1038 3163 
Q 1038 2656 1286 2365 
Q 1534 2075 1959 2075 
z
" transform="scale(0.015625)"/>
     </defs>
     <use xlink:href="#DejaVuSans-31"/>
     <use xlink:href="#DejaVuSans-33" x="63.623047"/>
     <use xlink:href="#DejaVuSans-2e" x="127.246094"/>
     <use xlink:href="#DejaVuSans-39" x="159.033203"/>
     <use xlink:href="#DejaVuSans-25" x="222.65625"/>
    </g>
   </g>
   <g id="text_3">
    <!-- 6.9% -->
    <g transform="translate(83.010008 264.993239) scale(0.1 -0.1)">
     <use xlink:href="#DejaVuSans-36"/>
     <use xlink:href="#DejaVuSans-2e" x="63.623047"/>
     <use xlink:href="#DejaVuSans-39" x="95.410156"/>
     <use xlink:href="#DejaVuSans-25" x="159.033203"/>
    </g>
   </g>
   <g id="text_4">
    <!-- 9.8% -->
    <g transform="translate(111.811397 304.374254) scale(0.1 -0.1)">
     <use xlink:href="#DejaVuSans-39"/>
     <use xlink:href="#DejaVuSans-2e" x="63.623047"/>
     <use xlink:href="#DejaVuSans-38" x="95.410156"/>
     <use xlink:href="#DejaVuSans-25" x="159.033203"/>
    </g>
   </g>
   <g id="text_5">
    <!-- 4.8% -->
    <g transform="translate(150.349472 322.926438) scale(0.1 -0.1)">
     <defs>
      <path id="DejaVuSans-34" d="M 2419 4116 
L 825 1625 
L 2419 1625 
L 2419 4116 
z
M 2253 4666 
L 3047 4666 
L 3047 1625 
L 3713 1625 
L 3713 1100 
L 3047 1100 
L 3047 0 
L 2419 0 
L 2419 1100 
L 313 1100 
L 313 1709 
L 2253 4666 
z
" transform="scale(0.015625)"/>
     </defs>
     <use xlink:href="#DejaVuSans-34"/>
     <use xlink:href="#DejaVuSans-2e" x="63.623047"/>
     <use xlink:href="#DejaVuSans-38" x="95.410156"/>
     <use xlink:href="#DejaVuSans-25" x="159.033203"/>
    </g>
   </g>
   <g id="text_6">
    <!-- 3.2% -->
    <g transform="translate(173.994462 325.142629) scale(0.1 -0.1)">
     <defs>
      <path id="DejaVuSans-32" d="M 1228 531 
L 3431 531 
L 3431 0 
L 469 0 
L 469 531 
Q 828 903 1448 1529 
Q 2069 2156 2228 2338 
Q 2531 2678 2651 2914 
Q 2772 3150 2772 3378 
Q 2772 3750 2511 3984 
Q 2250 4219 1831 4219 
Q 1534 4219 1204 4116 
Q 875 4013 500 3803 
L 500 4441 
Q 881 4594 1212 4672 
Q 1544 4750 1819 4750 
Q 2544 4750 2975 4387 
Q 3406 4025 3406 3419 
Q 3406 3131 3298 2873 
Q 3191 2616 2906 2266 
Q 2828 2175 2409 1742 
Q 1991 1309 1228 531 
z
" transform="scale(0.015625)"/>
     </defs>
     <use xlink:href="#DejaVuSans-33"/>
     <use xlink:href="#DejaVuSans-2e" x="63.623047"/>
     <use xlink:href="#DejaVuSans-32" x="95.410156"/>
     <use xlink:href="#DejaVuSans-25" x="159.033203"/>
    </g>
   </g>
   <g id="text_7">
    <!-- 10.1% -->
    <g transform="translate(208.793218 315.771817) scale(0.1 -0.1)">
     <defs>
      <path id="DejaVuSans-30" d="M 2034 4250 
Q 1547 4250 1301 3770 
Q 1056 3291 1056 2328 
Q 1056 1369 1301 889 
Q 1547 409 2034 409 
Q 2525 409 2770 889 
Q 3016 1369 3016 2328 
Q 3016 3291 2770 3770 
Q 2525 4250 2034 4250 
z
M 2034 4750 
Q 2819 4750 3233 4129 
Q 3647 3509 3647 2328 
Q 3647 1150 3233 529 
Q 2819 -91 2034 -91 
Q 1250 -91 836 529 
Q 422 1150 422 2328 
Q 422 3509 836 4129 
Q 1250 4750 2034 4750 
z
" transform="scale(0.015625)"/>
     </defs>
     <use xlink:href="#DejaVuSans-31"/>
     <use xlink:href="#DejaVuSans-30" x="63.623047"/>
     <use xlink:href="#DejaVuSans-2e" x="127.246094"/>
     <use xlink:href="#DejaVuSans-31" x="159.033203"/>
     <use xlink:href="#DejaVuSans-25" x="222.65625"/>
    </g>
   </g>
   <g id="text_8">
    <!-- 6.7% -->
    <g transform="translate(249.051805 283.625243) scale(0.1 -0.1)">
     <defs>
      <path id="DejaVuSans-37" d="M 525 4666 
L 3525 4666 
L 3525 4397 
L 1831 0 
L 1172 0 
L 2766 4134 
L 525 4134 
L 525 4666 
z
" transform="scale(0.015625)"/>
     </defs>
     <use xlink:href="#DejaVuSans-36"/>
     <use xlink:href="#DejaVuSans-2e" x="63.623047"/>
     <use xlink:href="#DejaVuSans-37" x="95.410156"/>
     <use xlink:href="#DejaVuSans-25" x="159.033203"/>
    </g>
   </g>
   <g id="text_9">
    <!-- 6.1% -->
    <g transform="translate(263.433992 248.853805) scale(0.1 -0.1)">
     <use xlink:href="#DejaVuSans-36"/>
     <use xlink:href="#DejaVuSans-2e" x="63.623047"/>
     <use xlink:href="#DejaVuSans-31" x="95.410156"/>
     <use xlink:href="#DejaVuSans-25" x="159.033203"/>
    </g>
   </g>
   <g id="text_10">
    <!-- Biology -->
    <g transform="translate(154.0625 23.76) scale(0.16 -0.16)">
     <defs>
      <path id="DejaVuSans-42" d="M 1259 2228 
L 1259 519 
L 2272 519 
Q 2781 519 3026 730 
Q 3272 941 3272 1375 
Q 3272 1813 3026 2020 
Q 2781 2228 2272 2228 
L 1259 2228 
z
M 1259 4147 
L 1259 2741 
L 2194 2741 
Q 2656 2741 2882 2914 
Q 3109 3088 3109 3444 
Q 3109 3797 2882 3972 
Q 2656 4147 2194 4147 
L 1259 4147 
z
M 628 4666 
L 2241 4666 
Q 2963 4666 3353 4366 
Q 3744 4066 3744 3513 
Q 3744 3084 3544 2831 
Q 3344 2578 2956 2516 
Q 3422 2416 3680 2098 
Q 3938 1781 3938 1306 
Q 3938 681 3513 340 
Q 3088 0 2303 0 
L 628 0 
L 628 4666 
z
" transform="scale(0.015625)"/>
      <path id="DejaVuSans-69" d="M 603 3500 
L 1178 3500 
L 1178 0 
L 603 0 
L 603 3500 
z
M 603 4863 
L 1178 4863 
L 1178 4134 
L 603 4134 
L 603 4863 
z
" transform="scale(0.015625)"/>
      <path id="DejaVuSans-6f" d="M 1959 3097 
Q 1497 3097 1228 2736 
Q 959 2375 959 1747 
Q 959 1119 1226 758 
Q 1494 397 1959 397 
Q 2419 397 2687 759 
Q 2956 1122 2956 1747 
Q 2956 2369 2687 2733 
Q 2419 3097 1959 3097 
z
M 1959 3584 
Q 2709 3584 3137 3096 
Q 3566 2609 3566 1747 
Q 3566 888 3137 398 
Q 2709 -91 1959 -91 
Q 1206 -91 779 398 
Q 353 888 353 1747 
Q 353 2609 779 3096 
Q 1206 3584 1959 3584 
z
" transform="scale(0.015625)"/>
      <path id="DejaVuSans-6c" d="M 603 4863 
L 1178 4863 
L 1178 0 
L 603 0 
L 603 4863 
z
" transform="scale(0.015625)"/>
      <path id="DejaVuSans-67" d="M 2906 1791 
Q 2906 2416 2648 2759 
Q 2391 3103 1925 3103 
Q 1463 3103 1205 2759 
Q 947 2416 947 1791 
Q 947 1169 1205 825 
Q 1463 481 1925 481 
Q 2391 481 2648 825 
Q 2906 1169 2906 1791 
z
M 3481 434 
Q 3481 -459 3084 -895 
Q 2688 -1331 1869 -1331 
Q 1566 -1331 1297 -1286 
Q 1028 -1241 775 -1147 
L 775 -588 
Q 1028 -725 1275 -790 
Q 1522 -856 1778 -856 
Q 2344 -856 2625 -561 
Q 2906 -266 2906 331 
L 2906 616 
Q 2728 306 2450 153 
Q 2172 0 1784 0 
Q 1141 0 747 490 
Q 353 981 353 1791 
Q 353 2603 747 3093 
Q 1141 3584 1784 3584 
Q 2172 3584 2450 3431 
Q 2728 3278 2906 2969 
L 2906 3500 
L 3481 3500 
L 3481 434 
z
" transform="scale(0.015625)"/>
      <path id="DejaVuSans-79" d="M 2059 -325 
Q 1816 -950 1584 -1140 
Q 1353 -1331 966 -1331 
L 506 -1331 
L 506 -850 
L 844 -850 
Q 1081 -850 1212 -737 
Q 1344 -625 1503 -206 
L 1606 56 
L 191 3500 
L 800 3500 
L 1894 763 
L 2988 3500 
L 3597 3500 
L 2059 -325 
z
" transform="scale(0.015625)"/>
     </defs>
     <use xlink:href="#DejaVuSans-42"/>
     <use xlink:href="#DejaVuSans-69" x="68.603516"/>
     <use xlink:href="#DejaVuSans-6f" x="96.386719"/>
     <use xlink:href="#DejaVuSans-6c" x="157.568359"/>
     <use xlink:href="#DejaVuSans-6f" x="185.351562"/>
     <use xlink:href="#DejaVuSans-67" x="246.533203"/>
     <use xlink:href="#DejaVuSans-79" x="310.009766"/>
    </g>
   </g>
   <g id="legend_1">
    <g id="patch_11">
     <path d="M 770.6225 769.817 
L 967.28 769.817 
Q 970.48 769.817 970.48 766.617 
L 970.48 556.852 
Q 970.48 553.652 967.28 553.652 
L 770.6225 553.652 
Q 767.4225 553.652 767.4225 556.852 
L 767.4225 766.617 
Q 767.4225 769.817 770.6225 769.817 
z
" style="fill: #ffffff; opacity: 0.8; stroke: #cccccc; stroke-linejoin: miter"/>
    </g>
    <g id="patch_12">
     <path d="M 773.8225 572.2095 
L 805.8225 572.2095 
L 805.8225 561.0095 
L 773.8225 561.0095 
z
" style="fill: #1f77b4"/>
    </g>
    <g id="text_11">
     <!-- Housing -->
     <g transform="translate(818.6225 572.2095) scale(0.16 -0.16)">
      <defs>
       <path id="DejaVuSans-48" d="M 628 4666 
L 1259 4666 
L 1259 2753 
L 3553 2753 
L 3553 4666 
L 4184 4666 
L 4184 0 
L 3553 0 
L 3553 2222 
L 1259 2222 
L 1259 0 
L 628 0 
L 628 4666 
z
" transform="scale(0.015625)"/>
       <path id="DejaVuSans-75" d="M 544 1381 
L 544 3500 
L 1119 3500 
L 1119 1403 
Q 1119 906 1312 657 
Q 1506 409 1894 409 
Q 2359 409 2629 706 
Q 2900 1003 2900 1516 
L 2900 3500 
L 3475 3500 
L 3475 0 
L 2900 0 
L 2900 538 
Q 2691 219 2414 64 
Q 2138 -91 1772 -91 
Q 1169 -91 856 284 
Q 544 659 544 1381 
z
M 1991 3584 
L 1991 3584 
z
" transform="scale(0.015625)"/>
       <path id="DejaVuSans-73" d="M 2834 3397 
L 2834 2853 
Q 2591 2978 2328 3040 
Q 2066 3103 1784 3103 
Q 1356 3103 1142 2972 
Q 928 2841 928 2578 
Q 928 2378 1081 2264 
Q 1234 2150 1697 2047 
L 1894 2003 
Q 2506 1872 2764 1633 
Q 3022 1394 3022 966 
Q 3022 478 2636 193 
Q 2250 -91 1575 -91 
Q 1294 -91 989 -36 
Q 684 19 347 128 
L 347 722 
Q 666 556 975 473 
Q 1284 391 1588 391 
Q 1994 391 2212 530 
Q 2431 669 2431 922 
Q 2431 1156 2273 1281 
Q 2116 1406 1581 1522 
L 1381 1569 
Q 847 1681 609 1914 
Q 372 2147 372 2553 
Q 372 3047 722 3315 
Q 1072 3584 1716 3584 
Q 2034 3584 2315 3537 
Q 2597 3491 2834 3397 
z
" transform="scale(0.015625)"/>
       <path id="DejaVuSans-6e" d="M 3513 2113 
L 3513 0 
L 2938 0 
L 2938 2094 
Q 2938 2591 2744 2837 
Q 2550 3084 2163 3084 
Q 1697 3084 1428 2787 
Q 1159 2491 1159 1978 
L 1159 0 
L 581 0 
L 581 3500 
L 1159 3500 
L 1159 2956 
Q 1366 3272 1645 3428 
Q 1925 3584 2291 3584 
Q 2894 3584 3203 3211 
Q 3513 2838 3513 2113 
z
" transform="scale(0.015625)"/>
      </defs>
      <use xlink:href="#DejaVuSans-48"/>
      <use xlink:href="#DejaVuSans-6f" x="75.195312"/>
      <use xlink:href="#DejaVuSans-75" x="136.376953"/>
      <use xlink:href="#DejaVuSans-73" x="199.755859"/>
      <use xlink:href="#DejaVuSans-69" x="251.855469"/>
      <use xlink:href="#DejaVuSans-6e" x="279.638672"/>
      <use xlink:href="#DejaVuSans-67" x="343.017578"/>
     </g>
    </g>
    <g id="patch_13">
     <path d="M 773.8225 595.6945 
L 805.8225 595.6945 
L 805.8225 584.4945 
L 773.8225 584.4945 
z
" style="fill: #ff7f0e"/>
    </g>
    <g id="text_12">
     <!-- Food -->
     <g transform="translate(818.6225 595.6945) scale(0.16 -0.16)">
      <defs>
       <path id="DejaVuSans-46" d="M 628 4666 
L 3309 4666 
L 3309 4134 
L 1259 4134 
L 1259 2759 
L 3109 2759 
L 3109 2228 
L 1259 2228 
L 1259 0 
L 628 0 
L 628 4666 
z
" transform="scale(0.015625)"/>
       <path id="DejaVuSans-64" d="M 2906 2969 
L 2906 4863 
L 3481 4863 
L 3481 0 
L 2906 0 
L 2906 525 
Q 2725 213 2448 61 
Q 2172 -91 1784 -91 
Q 1150 -91 751 415 
Q 353 922 353 1747 
Q 353 2572 751 3078 
Q 1150 3584 1784 3584 
Q 2172 3584 2448 3432 
Q 2725 3281 2906 2969 
z
M 947 1747 
Q 947 1113 1208 752 
Q 1469 391 1925 391 
Q 2381 391 2643 752 
Q 2906 1113 2906 1747 
Q 2906 2381 2643 2742 
Q 2381 3103 1925 3103 
Q 1469 3103 1208 2742 
Q 947 2381 947 1747 
z
" transform="scale(0.015625)"/>
      </defs>
      <use xlink:href="#DejaVuSans-46"/>
      <use xlink:href="#DejaVuSans-6f" x="53.894531"/>
      <use xlink:href="#DejaVuSans-6f" x="115.076172"/>
      <use xlink:href="#DejaVuSans-64" x="176.257812"/>
     </g>
    </g>
    <g id="patch_14">
     <path d="M 773.8225 619.1795 
L 805.8225 619.1795 
L 805.8225 607.9795 
L 773.8225 607.9795 
z
" style="fill: #2ca02c"/>
    </g>
    <g id="text_13">
     <!-- Transportation -->
     <g transform="translate(818.6225 619.1795) scale(0.16 -0.16)">
      <defs>
       <path id="DejaVuSans-54" d="M -19 4666 
L 3928 4666 
L 3928 4134 
L 2272 4134 
L 2272 0 
L 1638 0 
L 1638 4134 
L -19 4134 
L -19 4666 
z
" transform="scale(0.015625)"/>
       <path id="DejaVuSans-72" d="M 2631 2963 
Q 2534 3019 2420 3045 
Q 2306 3072 2169 3072 
Q 1681 3072 1420 2755 
Q 1159 2438 1159 1844 
L 1159 0 
L 581 0 
L 581 3500 
L 1159 3500 
L 1159 2956 
Q 1341 3275 1631 3429 
Q 1922 3584 2338 3584 
Q 2397 3584 2469 3576 
Q 2541 3569 2628 3553 
L 2631 2963 
z
" transform="scale(0.015625)"/>
       <path id="DejaVuSans-61" d="M 2194 1759 
Q 1497 1759 1228 1600 
Q 959 1441 959 1056 
Q 959 750 1161 570 
Q 1363 391 1709 391 
Q 2188 391 2477 730 
Q 2766 1069 2766 1631 
L 2766 1759 
L 2194 1759 
z
M 3341 1997 
L 3341 0 
L 2766 0 
L 2766 531 
Q 2569 213 2275 61 
Q 1981 -91 1556 -91 
Q 1019 -91 701 211 
Q 384 513 384 1019 
Q 384 1609 779 1909 
Q 1175 2209 1959 2209 
L 2766 2209 
L 2766 2266 
Q 2766 2663 2505 2880 
Q 2244 3097 1772 3097 
Q 1472 3097 1187 3025 
Q 903 2953 641 2809 
L 641 3341 
Q 956 3463 1253 3523 
Q 1550 3584 1831 3584 
Q 2591 3584 2966 3190 
Q 3341 2797 3341 1997 
z
" transform="scale(0.015625)"/>
       <path id="DejaVuSans-70" d="M 1159 525 
L 1159 -1331 
L 581 -1331 
L 581 3500 
L 1159 3500 
L 1159 2969 
Q 1341 3281 1617 3432 
Q 1894 3584 2278 3584 
Q 2916 3584 3314 3078 
Q 3713 2572 3713 1747 
Q 3713 922 3314 415 
Q 2916 -91 2278 -91 
Q 1894 -91 1617 61 
Q 1341 213 1159 525 
z
M 3116 1747 
Q 3116 2381 2855 2742 
Q 2594 3103 2138 3103 
Q 1681 3103 1420 2742 
Q 1159 2381 1159 1747 
Q 1159 1113 1420 752 
Q 1681 391 2138 391 
Q 2594 391 2855 752 
Q 3116 1113 3116 1747 
z
" transform="scale(0.015625)"/>
       <path id="DejaVuSans-74" d="M 1172 4494 
L 1172 3500 
L 2356 3500 
L 2356 3053 
L 1172 3053 
L 1172 1153 
Q 1172 725 1289 603 
Q 1406 481 1766 481 
L 2356 481 
L 2356 0 
L 1766 0 
Q 1100 0 847 248 
Q 594 497 594 1153 
L 594 3053 
L 172 3053 
L 172 3500 
L 594 3500 
L 594 4494 
L 1172 4494 
z
" transform="scale(0.015625)"/>
      </defs>
      <use xlink:href="#DejaVuSans-54"/>
      <use xlink:href="#DejaVuSans-72" x="46.333984"/>
      <use xlink:href="#DejaVuSans-61" x="87.447266"/>
      <use xlink:href="#DejaVuSans-6e" x="148.726562"/>
      <use xlink:href="#DejaVuSans-73" x="212.105469"/>
      <use xlink:href="#DejaVuSans-70" x="264.205078"/>
      <use xlink:href="#DejaVuSans-6f" x="327.681641"/>
      <use xlink:href="#DejaVuSans-72" x="388.863281"/>
      <use xlink:href="#DejaVuSans-74" x="429.976562"/>
      <use xlink:href="#DejaVuSans-61" x="469.185547"/>
      <use xlink:href="#DejaVuSans-74" x="530.464844"/>
      <use xlink:href="#DejaVuSans-69" x="569.673828"/>
      <use xlink:href="#DejaVuSans-6f" x="597.457031"/>
      <use xlink:href="#DejaVuSans-6e" x="658.638672"/>
     </g>
    </g>
    <g id="patch_15">
     <path d="M 773.8225 642.6645 
L 805.8225 642.6645 
L 805.8225 631.4645 
L 773.8225 631.4645 
z
" style="fill: #d62728"/>
    </g>
    <g id="text_14">
     <!-- Books &amp; Supplies -->
     <g transform="translate(818.6225 642.6645) scale(0.16 -0.16)">
      <defs>
       <path id="DejaVuSans-6b" d="M 581 4863 
L 1159 4863 
L 1159 1991 
L 2875 3500 
L 3609 3500 
L 1753 1863 
L 3688 0 
L 2938 0 
L 1159 1709 
L 1159 0 
L 581 0 
L 581 4863 
z
" transform="scale(0.015625)"/>
       <path id="DejaVuSans-20" transform="scale(0.015625)"/>
       <path id="DejaVuSans-26" d="M 1556 2509 
Q 1272 2256 1139 2004 
Q 1006 1753 1006 1478 
Q 1006 1022 1337 719 
Q 1669 416 2169 416 
Q 2466 416 2725 514 
Q 2984 613 3213 813 
L 1556 2509 
z
M 1997 2859 
L 3584 1234 
Q 3769 1513 3872 1830 
Q 3975 2147 3994 2503 
L 4575 2503 
Q 4538 2091 4375 1687 
Q 4213 1284 3922 891 
L 4794 0 
L 4006 0 
L 3559 459 
Q 3234 181 2878 45 
Q 2522 -91 2113 -91 
Q 1359 -91 881 339 
Q 403 769 403 1441 
Q 403 1841 612 2192 
Q 822 2544 1241 2853 
Q 1091 3050 1012 3245 
Q 934 3441 934 3628 
Q 934 4134 1281 4442 
Q 1628 4750 2203 4750 
Q 2463 4750 2720 4694 
Q 2978 4638 3244 4525 
L 3244 3956 
Q 2972 4103 2725 4179 
Q 2478 4256 2266 4256 
Q 1938 4256 1733 4082 
Q 1528 3909 1528 3634 
Q 1528 3475 1620 3314 
Q 1713 3153 1997 2859 
z
" transform="scale(0.015625)"/>
       <path id="DejaVuSans-53" d="M 3425 4513 
L 3425 3897 
Q 3066 4069 2747 4153 
Q 2428 4238 2131 4238 
Q 1616 4238 1336 4038 
Q 1056 3838 1056 3469 
Q 1056 3159 1242 3001 
Q 1428 2844 1947 2747 
L 2328 2669 
Q 3034 2534 3370 2195 
Q 3706 1856 3706 1288 
Q 3706 609 3251 259 
Q 2797 -91 1919 -91 
Q 1588 -91 1214 -16 
Q 841 59 441 206 
L 441 856 
Q 825 641 1194 531 
Q 1563 422 1919 422 
Q 2459 422 2753 634 
Q 3047 847 3047 1241 
Q 3047 1584 2836 1778 
Q 2625 1972 2144 2069 
L 1759 2144 
Q 1053 2284 737 2584 
Q 422 2884 422 3419 
Q 422 4038 858 4394 
Q 1294 4750 2059 4750 
Q 2388 4750 2728 4690 
Q 3069 4631 3425 4513 
z
" transform="scale(0.015625)"/>
       <path id="DejaVuSans-65" d="M 3597 1894 
L 3597 1613 
L 953 1613 
Q 991 1019 1311 708 
Q 1631 397 2203 397 
Q 2534 397 2845 478 
Q 3156 559 3463 722 
L 3463 178 
Q 3153 47 2828 -22 
Q 2503 -91 2169 -91 
Q 1331 -91 842 396 
Q 353 884 353 1716 
Q 353 2575 817 3079 
Q 1281 3584 2069 3584 
Q 2775 3584 3186 3129 
Q 3597 2675 3597 1894 
z
M 3022 2063 
Q 3016 2534 2758 2815 
Q 2500 3097 2075 3097 
Q 1594 3097 1305 2825 
Q 1016 2553 972 2059 
L 3022 2063 
z
" transform="scale(0.015625)"/>
      </defs>
      <use xlink:href="#DejaVuSans-42"/>
      <use xlink:href="#DejaVuSans-6f" x="68.603516"/>
      <use xlink:href="#DejaVuSans-6f" x="129.785156"/>
      <use xlink:href="#DejaVuSans-6b" x="190.966797"/>
      <use xlink:href="#DejaVuSans-73" x="248.876953"/>
      <use xlink:href="#DejaVuSans-20" x="300.976562"/>
      <use xlink:href="#DejaVuSans-26" x="332.763672"/>
      <use xlink:href="#DejaVuSans-20" x="410.742188"/>
      <use xlink:href="#DejaVuSans-53" x="442.529297"/>
      <use xlink:href="#DejaVuSans-75" x="506.005859"/>
      <use xlink:href="#DejaVuSans-70" x="569.384766"/>
      <use xlink:href="#DejaVuSans-70" x="632.861328"/>
      <use xlink:href="#DejaVuSans-6c" x="696.337891"/>
      <use xlink:href="#DejaVuSans-69" x="724.121094"/>
      <use xlink:href="#DejaVuSans-65" x="751.904297"/>
      <use xlink:href="#DejaVuSans-73" x="813.427734"/>
     </g>
    </g>
    <g id="patch_16">
     <path d="M 773.8225 666.1495 
L 805.8225 666.1495 
L 805.8225 654.9495 
L 773.8225 654.9495 
z
" style="fill: #9467bd"/>
    </g>
    <g id="text_15">
     <!-- Entertainment -->
     <g transform="translate(818.6225 666.1495) scale(0.16 -0.16)">
      <defs>
       <path id="DejaVuSans-45" d="M 628 4666 
L 3578 4666 
L 3578 4134 
L 1259 4134 
L 1259 2753 
L 3481 2753 
L 3481 2222 
L 1259 2222 
L 1259 531 
L 3634 531 
L 3634 0 
L 628 0 
L 628 4666 
z
" transform="scale(0.015625)"/>
       <path id="DejaVuSans-6d" d="M 3328 2828 
Q 3544 3216 3844 3400 
Q 4144 3584 4550 3584 
Q 5097 3584 5394 3201 
Q 5691 2819 5691 2113 
L 5691 0 
L 5113 0 
L 5113 2094 
Q 5113 2597 4934 2840 
Q 4756 3084 4391 3084 
Q 3944 3084 3684 2787 
Q 3425 2491 3425 1978 
L 3425 0 
L 2847 0 
L 2847 2094 
Q 2847 2600 2669 2842 
Q 2491 3084 2119 3084 
Q 1678 3084 1418 2786 
Q 1159 2488 1159 1978 
L 1159 0 
L 581 0 
L 581 3500 
L 1159 3500 
L 1159 2956 
Q 1356 3278 1631 3431 
Q 1906 3584 2284 3584 
Q 2666 3584 2933 3390 
Q 3200 3197 3328 2828 
z
" transform="scale(0.015625)"/>
      </defs>
      <use xlink:href="#DejaVuSans-45"/>
      <use xlink:href="#DejaVuSans-6e" x="63.183594"/>
      <use xlink:href="#DejaVuSans-74" x="126.5625"/>
      <use xlink:href="#DejaVuSans-65" x="165.771484"/>
      <use xlink:href="#DejaVuSans-72" x="227.294922"/>
      <use xlink:href="#DejaVuSans-74" x="268.408203"/>
      <use xlink:href="#DejaVuSans-61" x="307.617188"/>
      <use xlink:href="#DejaVuSans-69" x="368.896484"/>
      <use xlink:href="#DejaVuSans-6e" x="396.679688"/>
      <use xlink:href="#DejaVuSans-6d" x="460.058594"/>
      <use xlink:href="#DejaVuSans-65" x="557.470703"/>
      <use xlink:href="#DejaVuSans-6e" x="618.994141"/>
      <use xlink:href="#DejaVuSans-74" x="682.373047"/>
     </g>
    </g>
    <g id="patch_17">
     <path d="M 773.8225 689.6345 
L 805.8225 689.6345 
L 805.8225 678.4345 
L 773.8225 678.4345 
z
" style="fill: #8c564b"/>
    </g>
    <g id="text_16">
     <!-- Personal Care -->
     <g transform="translate(818.6225 689.6345) scale(0.16 -0.16)">
      <defs>
       <path id="DejaVuSans-50" d="M 1259 4147 
L 1259 2394 
L 2053 2394 
Q 2494 2394 2734 2622 
Q 2975 2850 2975 3272 
Q 2975 3691 2734 3919 
Q 2494 4147 2053 4147 
L 1259 4147 
z
M 628 4666 
L 2053 4666 
Q 2838 4666 3239 4311 
Q 3641 3956 3641 3272 
Q 3641 2581 3239 2228 
Q 2838 1875 2053 1875 
L 1259 1875 
L 1259 0 
L 628 0 
L 628 4666 
z
" transform="scale(0.015625)"/>
       <path id="DejaVuSans-43" d="M 4122 4306 
L 4122 3641 
Q 3803 3938 3442 4084 
Q 3081 4231 2675 4231 
Q 1875 4231 1450 3742 
Q 1025 3253 1025 2328 
Q 1025 1406 1450 917 
Q 1875 428 2675 428 
Q 3081 428 3442 575 
Q 3803 722 4122 1019 
L 4122 359 
Q 3791 134 3420 21 
Q 3050 -91 2638 -91 
Q 1578 -91 968 557 
Q 359 1206 359 2328 
Q 359 3453 968 4101 
Q 1578 4750 2638 4750 
Q 3056 4750 3426 4639 
Q 3797 4528 4122 4306 
z
" transform="scale(0.015625)"/>
      </defs>
      <use xlink:href="#DejaVuSans-50"/>
      <use xlink:href="#DejaVuSans-65" x="56.677734"/>
      <use xlink:href="#DejaVuSans-72" x="118.201172"/>
      <use xlink:href="#DejaVuSans-73" x="159.314453"/>
      <use xlink:href="#DejaVuSans-6f" x="211.414062"/>
      <use xlink:href="#DejaVuSans-6e" x="272.595703"/>
      <use xlink:href="#DejaVuSans-61" x="335.974609"/>
      <use xlink:href="#DejaVuSans-6c" x="397.253906"/>
      <use xlink:href="#DejaVuSans-20" x="425.037109"/>
      <use xlink:href="#DejaVuSans-43" x="456.824219"/>
      <use xlink:href="#DejaVuSans-61" x="526.648438"/>
      <use xlink:href="#DejaVuSans-72" x="587.927734"/>
      <use xlink:href="#DejaVuSans-65" x="626.791016"/>
     </g>
    </g>
    <g id="patch_18">
     <path d="M 773.8225 713.1195 
L 805.8225 713.1195 
L 805.8225 701.9195 
L 773.8225 701.9195 
z
" style="fill: #e377c2"/>
    </g>
    <g id="text_17">
     <!-- Technology -->
     <g transform="translate(818.6225 713.1195) scale(0.16 -0.16)">
      <defs>
       <path id="DejaVuSans-63" d="M 3122 3366 
L 3122 2828 
Q 2878 2963 2633 3030 
Q 2388 3097 2138 3097 
Q 1578 3097 1268 2742 
Q 959 2388 959 1747 
Q 959 1106 1268 751 
Q 1578 397 2138 397 
Q 2388 397 2633 464 
Q 2878 531 3122 666 
L 3122 134 
Q 2881 22 2623 -34 
Q 2366 -91 2075 -91 
Q 1284 -91 818 406 
Q 353 903 353 1747 
Q 353 2603 823 3093 
Q 1294 3584 2113 3584 
Q 2378 3584 2631 3529 
Q 2884 3475 3122 3366 
z
" transform="scale(0.015625)"/>
       <path id="DejaVuSans-68" d="M 3513 2113 
L 3513 0 
L 2938 0 
L 2938 2094 
Q 2938 2591 2744 2837 
Q 2550 3084 2163 3084 
Q 1697 3084 1428 2787 
Q 1159 2491 1159 1978 
L 1159 0 
L 581 0 
L 581 4863 
L 1159 4863 
L 1159 2956 
Q 1366 3272 1645 3428 
Q 1925 3584 2291 3584 
Q 2894 3584 3203 3211 
Q 3513 2838 3513 2113 
z
" transform="scale(0.015625)"/>
      </defs>
      <use xlink:href="#DejaVuSans-54"/>
      <use xlink:href="#DejaVuSans-65" x="44.083984"/>
      <use xlink:href="#DejaVuSans-63" x="105.607422"/>
      <use xlink:href="#DejaVuSans-68" x="160.587891"/>
      <use xlink:href="#DejaVuSans-6e" x="223.966797"/>
      <use xlink:href="#DejaVuSans-6f" x="287.345703"/>
      <use xlink:href="#DejaVuSans-6c" x="348.527344"/>
      <use xlink:href="#DejaVuSans-6f" x="376.310547"/>
      <use xlink:href="#DejaVuSans-67" x="437.492188"/>
      <use xlink:href="#DejaVuSans-79" x="500.96875"/>
     </g>
    </g>
    <g id="patch_19">
     <path d="M 773.8225 736.6045 
L 805.8225 736.6045 
L 805.8225 725.4045 
L 773.8225 725.4045 
z
" style="fill: #7f7f7f"/>
    </g>
    <g id="text_18">
     <!-- Health &amp; Wellness -->
     <g transform="translate(818.6225 736.6045) scale(0.16 -0.16)">
      <defs>
       <path id="DejaVuSans-57" d="M 213 4666 
L 850 4666 
L 1831 722 
L 2809 4666 
L 3519 4666 
L 4500 722 
L 5478 4666 
L 6119 4666 
L 4947 0 
L 4153 0 
L 3169 4050 
L 2175 0 
L 1381 0 
L 213 4666 
z
" transform="scale(0.015625)"/>
      </defs>
      <use xlink:href="#DejaVuSans-48"/>
      <use xlink:href="#DejaVuSans-65" x="75.195312"/>
      <use xlink:href="#DejaVuSans-61" x="136.71875"/>
      <use xlink:href="#DejaVuSans-6c" x="197.998047"/>
      <use xlink:href="#DejaVuSans-74" x="225.78125"/>
      <use xlink:href="#DejaVuSans-68" x="264.990234"/>
      <use xlink:href="#DejaVuSans-20" x="328.369141"/>
      <use xlink:href="#DejaVuSans-26" x="360.15625"/>
      <use xlink:href="#DejaVuSans-20" x="438.134766"/>
      <use xlink:href="#DejaVuSans-57" x="469.921875"/>
      <use xlink:href="#DejaVuSans-65" x="562.923828"/>
      <use xlink:href="#DejaVuSans-6c" x="624.447266"/>
      <use xlink:href="#DejaVuSans-6c" x="652.230469"/>
      <use xlink:href="#DejaVuSans-6e" x="680.013672"/>
      <use xlink:href="#DejaVuSans-65" x="743.392578"/>
      <use xlink:href="#DejaVuSans-73" x="804.916016"/>
      <use xlink:href="#DejaVuSans-73" x="857.015625"/>
     </g>
    </g>
    <g id="patch_20">
     <path d="M 773.8225 760.0895 
L 805.8225 760.0895 
L 805.8225 748.8895 
L 773.8225 748.8895 
z
" style="fill: #bcbd22"/>
    </g>
    <g id="text_19">
     <!-- Miscellaneous -->
     <g transform="translate(818.6225 760.0895) scale(0.16 -0.16)">
      <defs>
       <path id="DejaVuSans-4d" d="M 628 4666 
L 1569 4666 
L 2759 1491 
L 3956 4666 
L 4897 4666 
L 4897 0 
L 4281 0 
L 4281 4097 
L 3078 897 
L 2444 897 
L 1241 4097 
L 1241 0 
L 628 0 
L 628 4666 
z
" transform="scale(0.015625)"/>
      </defs>
      <use xlink:href="#DejaVuSans-4d"/>
      <use xlink:href="#DejaVuSans-69" x="86.279297"/>
      <use xlink:href="#DejaVuSans-73" x="114.0625"/>
      <use xlink:href="#DejaVuSans-63" x="166.162109"/>
      <use xlink:href="#DejaVuSans-65" x="221.142578"/>
      <use xlink:href="#DejaVuSans-6c" x="282.666016"/>
      <use xlink:href="#DejaVuSans-6c" x="310.449219"/>
      <use xlink:href="#DejaVuSans-61" x="338.232422"/>
      <use xlink:href="#DejaVuSans-6e" x="399.511719"/>
      <use xlink:href="#DejaVuSans-65" x="462.890625"/>
      <use xlink:href="#DejaVuSans-6f" x="524.414062"/>
      <use xlink:href="#DejaVuSans-75" x="585.595703"/>
      <use xlink:href="#DejaVuSans-73" x="648.974609"/>
     </g>
    </g>
   </g>
  </g>
  <g id="axes_2">
   <g id="patch_21">
    <path d="M 697.090909 228.179437 
C 697.090909 195.301923 686.769524 163.239521 667.589571 136.536332 
C 648.409617 109.833144 621.322129 89.813239 590.166128 79.313976 
C 559.010128 68.814712 525.330478 68.356693 493.900487 78.004832 
C 462.470497 87.652971 434.848614 106.928867 414.949599 133.10061 
L 539.999943 228.179437 
z
" style="fill: #1f77b4"/>
   </g>
   <g id="patch_22">
    <path d="M 414.949599 133.10061 
C 401.397024 150.925338 391.810898 171.443452 386.835683 193.275549 
C 381.860469 215.107647 381.610212 237.753268 386.101739 259.689982 
L 539.999943 228.179437 
z
" style="fill: #ff7f0e"/>
   </g>
   <g id="patch_23">
    <path d="M 386.101739 259.689982 
C 388.373958 270.78755 391.839891 281.606861 396.439023 291.959009 
C 401.038155 302.311158 406.743561 312.135541 413.455627 321.260626 
L 539.999943 228.179437 
z
" style="fill: #2ca02c"/>
   </g>
   <g id="patch_24">
    <path d="M 413.455627 321.260626 
C 422.906806 334.109548 434.260056 345.444383 447.124305 354.874691 
C 459.988553 364.304999 474.214377 371.721244 489.311755 376.867968 
L 539.999943 228.179437 
z
" style="fill: #d62728"/>
   </g>
   <g id="patch_25">
    <path d="M 489.311755 376.867968 
C 496.381038 379.277899 503.613196 381.180609 510.953179 382.561616 
C 518.293162 383.942622 525.722297 384.798411 533.184033 385.122468 
L 539.999943 228.179437 
z
" style="fill: #9467bd"/>
   </g>
   <g id="patch_26">
    <path d="M 533.184033 385.122468 
C 538.77859 385.365435 544.382138 385.309084 549.970677 384.953657 
C 555.559216 384.59823 561.124755 383.944234 566.643455 382.994471 
L 539.999943 228.179437 
z
" style="fill: #8c564b"/>
   </g>
   <g id="patch_27">
    <path d="M 566.643455 382.994471 
C 582.443161 380.275358 597.733916 375.153531 611.983679 367.807204 
C 626.233442 360.460877 639.275001 350.976256 650.654574 339.683357 
L 539.999943 228.179437 
z
" style="fill: #e377c2"/>
   </g>
   <g id="patch_28">
    <path d="M 650.654574 339.683357 
C 658.164955 332.230181 664.90314 324.037241 670.766418 315.229425 
C 676.629697 306.42161 681.588123 297.043901 685.566115 287.239248 
L 539.999943 228.179437 
z
" style="fill: #7f7f7f"/>
   </g>
   <g id="patch_29">
    <path d="M 685.566115 287.239248 
C 689.36297 277.881045 692.248559 268.17847 694.182794 258.266315 
C 696.117028 248.354159 697.09091 238.278539 697.090909 228.179426 
L 539.999943 228.179437 
z
" style="fill: #bcbd22"/>
   </g>
   <g id="matplotlib.axis_3"/>
   <g id="matplotlib.axis_4"/>
   <g id="text_20">
    <!-- 39.7% -->
    <g transform="translate(554.21606 141.619535) scale(0.1 -0.1)">
     <use xlink:href="#DejaVuSans-33"/>
     <use xlink:href="#DejaVuSans-39" x="63.623047"/>
     <use xlink:href="#DejaVuSans-2e" x="127.246094"/>
     <use xlink:href="#DejaVuSans-37" x="159.033203"/>
     <use xlink:href="#DejaVuSans-25" x="222.65625"/>
    </g>
   </g>
   <g id="text_21">
    <!-- 13.6% -->
    <g transform="translate(432.217793 209.996479) scale(0.1 -0.1)">
     <use xlink:href="#DejaVuSans-31"/>
     <use xlink:href="#DejaVuSans-33" x="63.623047"/>
     <use xlink:href="#DejaVuSans-2e" x="127.246094"/>
     <use xlink:href="#DejaVuSans-36" x="159.033203"/>
     <use xlink:href="#DejaVuSans-25" x="222.65625"/>
    </g>
   </g>
   <g id="text_22">
    <!-- 6.9% -->
    <g transform="translate(441.161047 269.206555) scale(0.1 -0.1)">
     <use xlink:href="#DejaVuSans-36"/>
     <use xlink:href="#DejaVuSans-2e" x="63.623047"/>
     <use xlink:href="#DejaVuSans-39" x="95.410156"/>
     <use xlink:href="#DejaVuSans-25" x="159.033203"/>
    </g>
   </g>
   <g id="text_23">
    <!-- 9.7% -->
    <g transform="translate(471.572216 306.955964) scale(0.1 -0.1)">
     <use xlink:href="#DejaVuSans-39"/>
     <use xlink:href="#DejaVuSans-2e" x="63.623047"/>
     <use xlink:href="#DejaVuSans-37" x="95.410156"/>
     <use xlink:href="#DejaVuSans-25" x="159.033203"/>
    </g>
   </g>
   <g id="text_24">
    <!-- 4.5% -->
    <g transform="translate(509.869541 323.568119) scale(0.1 -0.1)">
     <defs>
      <path id="DejaVuSans-35" d="M 691 4666 
L 3169 4666 
L 3169 4134 
L 1269 4134 
L 1269 2991 
Q 1406 3038 1543 3061 
Q 1681 3084 1819 3084 
Q 2600 3084 3056 2656 
Q 3513 2228 3513 1497 
Q 3513 744 3044 326 
Q 2575 -91 1722 -91 
Q 1428 -91 1123 -41 
Q 819 9 494 109 
L 494 744 
Q 775 591 1075 516 
Q 1375 441 1709 441 
Q 2250 441 2565 725 
Q 2881 1009 2881 1497 
Q 2881 1984 2565 2268 
Q 2250 2553 1709 2553 
Q 1456 2553 1204 2497 
Q 953 2441 691 2322 
L 691 4666 
z
" transform="scale(0.015625)"/>
     </defs>
     <use xlink:href="#DejaVuSans-34"/>
     <use xlink:href="#DejaVuSans-2e" x="63.623047"/>
     <use xlink:href="#DejaVuSans-35" x="95.410156"/>
     <use xlink:href="#DejaVuSans-25" x="159.033203"/>
    </g>
   </g>
   <g id="text_25">
    <!-- 3.4% -->
    <g transform="translate(533.28004 325.003344) scale(0.1 -0.1)">
     <use xlink:href="#DejaVuSans-33"/>
     <use xlink:href="#DejaVuSans-2e" x="63.623047"/>
     <use xlink:href="#DejaVuSans-34" x="95.410156"/>
     <use xlink:href="#DejaVuSans-25" x="159.033203"/>
    </g>
   </g>
   <g id="text_26">
    <!-- 9.7% -->
    <g transform="translate(570.487841 314.715472) scale(0.1 -0.1)">
     <use xlink:href="#DejaVuSans-39"/>
     <use xlink:href="#DejaVuSans-2e" x="63.623047"/>
     <use xlink:href="#DejaVuSans-37" x="95.410156"/>
     <use xlink:href="#DejaVuSans-25" x="159.033203"/>
    </g>
   </g>
   <g id="text_27">
    <!-- 6.4% -->
    <g transform="translate(605.757484 283.168805) scale(0.1 -0.1)">
     <use xlink:href="#DejaVuSans-36"/>
     <use xlink:href="#DejaVuSans-2e" x="63.623047"/>
     <use xlink:href="#DejaVuSans-34" x="95.410156"/>
     <use xlink:href="#DejaVuSans-25" x="159.033203"/>
    </g>
   </g>
   <g id="text_28">
    <!-- 6.1% -->
    <g transform="translate(619.807309 248.990938) scale(0.1 -0.1)">
     <use xlink:href="#DejaVuSans-36"/>
     <use xlink:href="#DejaVuSans-2e" x="63.623047"/>
     <use xlink:href="#DejaVuSans-31" x="95.410156"/>
     <use xlink:href="#DejaVuSans-25" x="159.033203"/>
    </g>
   </g>
   <g id="text_29">
    <!-- Computer Science -->
    <g transform="translate(466.67375 23.76) scale(0.16 -0.16)">
     <use xlink:href="#DejaVuSans-43"/>
     <use xlink:href="#DejaVuSans-6f" x="69.824219"/>
     <use xlink:href="#DejaVuSans-6d" x="131.005859"/>
     <use xlink:href="#DejaVuSans-70" x="228.417969"/>
     <use xlink:href="#DejaVuSans-75" x="291.894531"/>
     <use xlink:href="#DejaVuSans-74" x="355.273438"/>
     <use xlink:href="#DejaVuSans-65" x="394.482422"/>
     <use xlink:href="#DejaVuSans-72" x="456.005859"/>
     <use xlink:href="#DejaVuSans-20" x="497.119141"/>
     <use xlink:href="#DejaVuSans-53" x="528.90625"/>
     <use xlink:href="#DejaVuSans-63" x="592.382812"/>
     <use xlink:href="#DejaVuSans-69" x="647.363281"/>
     <use xlink:href="#DejaVuSans-65" x="675.146484"/>
     <use xlink:href="#DejaVuSans-6e" x="736.669922"/>
     <use xlink:href="#DejaVuSans-63" x="800.048828"/>
     <use xlink:href="#DejaVuSans-65" x="855.029297"/>
    </g>
   </g>
  </g>
  <g id="axes_3">
   <g id="patch_30">
    <path d="M 1053.490909 228.179621 
C 1053.490909 196.537035 1043.930336 165.620781 1026.068128 139.501921 
C 1008.205921 113.383062 982.862107 93.260675 953.373968 81.784484 
C 923.88583 70.308293 891.607123 68.005153 860.78832 75.178341 
C 829.969517 82.35153 802.025462 98.671736 780.635838 121.989911 
L 896.399923 228.179621 
z
" style="fill: #1f77b4"/>
   </g>
   <g id="patch_31">
    <path d="M 780.635838 121.989911 
C 764.30113 139.797404 752.293441 161.136132 745.549895 184.340746 
C 738.806349 207.54536 737.50706 231.996081 741.753429 255.784689 
L 896.399923 228.179621 
z
" style="fill: #ff7f0e"/>
   </g>
   <g id="patch_32">
    <path d="M 741.753429 255.784689 
C 743.79413 267.216913 747.096242 278.387679 751.599187 289.092056 
C 756.102132 299.796433 761.778203 309.968561 768.523272 319.421827 
L 896.399923 228.179621 
z
" style="fill: #2ca02c"/>
   </g>
   <g id="patch_33">
    <path d="M 768.523272 319.421827 
C 777.921541 332.593573 789.298742 344.234511 802.251692 353.932111 
C 815.204643 363.62971 829.578505 371.268049 844.8639 376.576441 
L 896.399923 228.179621 
z
" style="fill: #d62728"/>
   </g>
   <g id="patch_34">
    <path d="M 844.8639 376.576441 
C 852.331343 379.169774 859.983893 381.19576 867.756314 382.637128 
C 875.528735 384.078497 883.398877 384.93114 891.29965 385.18779 
L 896.399923 228.179621 
z
" style="fill: #9467bd"/>
   </g>
   <g id="patch_35">
    <path d="M 891.29965 385.18779 
C 896.780257 385.365823 902.266429 385.25677 907.735632 384.86108 
C 913.204835 384.46539 918.64957 383.783605 924.047475 382.818526 
L 896.399923 228.179621 
z
" style="fill: #8c564b"/>
   </g>
   <g id="patch_36">
    <path d="M 924.047475 382.818526 
C 940.411817 379.892781 956.208499 374.38791 970.846994 366.509703 
C 985.485489 358.631496 998.781085 348.47936 1010.236756 336.432813 
L 896.399923 228.179621 
z
" style="fill: #e377c2"/>
   </g>
   <g id="patch_37">
    <path d="M 1010.236756 336.432813 
C 1017.101574 329.21391 1023.264181 321.358353 1028.641267 312.972339 
C 1034.018352 304.586324 1038.585575 295.707812 1042.281193 286.456829 
L 896.399923 228.179621 
z
" style="fill: #7f7f7f"/>
   </g>
   <g id="patch_38">
    <path d="M 1042.281193 286.456829 
C 1045.975453 277.209246 1048.782035 267.631303 1050.663026 257.852386 
C 1052.544017 248.073469 1053.490908 238.137812 1053.490909 228.179632 
L 896.399923 228.179621 
z
" style="fill: #bcbd22"/>
   </g>
   <g id="matplotlib.axis_5"/>
   <g id="matplotlib.axis_6"/>
   <g id="text_30">
    <!-- 38.2% -->
    <g transform="translate(914.700756 143.101914) scale(0.1 -0.1)">
     <use xlink:href="#DejaVuSans-33"/>
     <use xlink:href="#DejaVuSans-38" x="63.623047"/>
     <use xlink:href="#DejaVuSans-2e" x="127.246094"/>
     <use xlink:href="#DejaVuSans-32" x="159.033203"/>
     <use xlink:href="#DejaVuSans-25" x="222.65625"/>
    </g>
   </g>
   <g id="text_31">
    <!-- 14.6% -->
    <g transform="translate(790.006312 204.635671) scale(0.1 -0.1)">
     <use xlink:href="#DejaVuSans-31"/>
     <use xlink:href="#DejaVuSans-34" x="63.623047"/>
     <use xlink:href="#DejaVuSans-2e" x="127.246094"/>
     <use xlink:href="#DejaVuSans-36" x="159.033203"/>
     <use xlink:href="#DejaVuSans-25" x="222.65625"/>
    </g>
   </g>
   <g id="text_32">
    <!-- 7.1% -->
    <g transform="translate(796.817138 267.486457) scale(0.1 -0.1)">
     <use xlink:href="#DejaVuSans-37"/>
     <use xlink:href="#DejaVuSans-2e" x="63.623047"/>
     <use xlink:href="#DejaVuSans-31" x="95.410156"/>
     <use xlink:href="#DejaVuSans-25" x="159.033203"/>
    </g>
   </g>
   <g id="text_33">
    <!-- 9.8% -->
    <g transform="translate(827.208641 306.39049) scale(0.1 -0.1)">
     <use xlink:href="#DejaVuSans-39"/>
     <use xlink:href="#DejaVuSans-2e" x="63.623047"/>
     <use xlink:href="#DejaVuSans-38" x="95.410156"/>
     <use xlink:href="#DejaVuSans-25" x="159.033203"/>
    </g>
   </g>
   <g id="text_34">
    <!-- 4.8% -->
    <g transform="translate(866.511414 323.613501) scale(0.1 -0.1)">
     <use xlink:href="#DejaVuSans-34"/>
     <use xlink:href="#DejaVuSans-2e" x="63.623047"/>
     <use xlink:href="#DejaVuSans-38" x="95.410156"/>
     <use xlink:href="#DejaVuSans-25" x="159.033203"/>
    </g>
   </g>
   <g id="text_35">
    <!-- 3.3% -->
    <g transform="translate(890.499005 324.947872) scale(0.1 -0.1)">
     <use xlink:href="#DejaVuSans-33"/>
     <use xlink:href="#DejaVuSans-2e" x="63.623047"/>
     <use xlink:href="#DejaVuSans-33" x="95.410156"/>
     <use xlink:href="#DejaVuSans-25" x="159.033203"/>
    </g>
   </g>
   <g id="text_36">
    <!-- 10.1% -->
    <g transform="translate(925.184572 313.937045) scale(0.1 -0.1)">
     <use xlink:href="#DejaVuSans-31"/>
     <use xlink:href="#DejaVuSans-30" x="63.623047"/>
     <use xlink:href="#DejaVuSans-2e" x="127.246094"/>
     <use xlink:href="#DejaVuSans-31" x="159.033203"/>
     <use xlink:href="#DejaVuSans-25" x="222.65625"/>
    </g>
   </g>
   <g id="text_37">
    <!-- 6.1% -->
    <g transform="translate(963.042385 281.814627) scale(0.1 -0.1)">
     <use xlink:href="#DejaVuSans-36"/>
     <use xlink:href="#DejaVuSans-2e" x="63.623047"/>
     <use xlink:href="#DejaVuSans-31" x="95.410156"/>
     <use xlink:href="#DejaVuSans-25" x="159.033203"/>
    </g>
   </g>
   <g id="text_38">
    <!-- 6.0% -->
    <g transform="translate(976.255441 248.742655) scale(0.1 -0.1)">
     <use xlink:href="#DejaVuSans-36"/>
     <use xlink:href="#DejaVuSans-2e" x="63.623047"/>
     <use xlink:href="#DejaVuSans-30" x="95.410156"/>
     <use xlink:href="#DejaVuSans-25" x="159.033203"/>
    </g>
   </g>
   <g id="text_39">
    <!-- Economics -->
    <g transform="translate(853.505 23.76) scale(0.16 -0.16)">
     <use xlink:href="#DejaVuSans-45"/>
     <use xlink:href="#DejaVuSans-63" x="63.183594"/>
     <use xlink:href="#DejaVuSans-6f" x="118.164062"/>
     <use xlink:href="#DejaVuSans-6e" x="179.345703"/>
     <use xlink:href="#DejaVuSans-6f" x="242.724609"/>
     <use xlink:href="#DejaVuSans-6d" x="303.90625"/>
     <use xlink:href="#DejaVuSans-69" x="401.318359"/>
     <use xlink:href="#DejaVuSans-63" x="429.101562"/>
     <use xlink:href="#DejaVuSans-73" x="484.082031"/>
    </g>
   </g>
  </g>
  <g id="axes_4">
   <g id="patch_39">
    <path d="M 340.690909 654.779527 
C 340.690909 622.551513 330.773297 591.091062 312.290862 564.689462 
C 293.808426 538.287862 267.641547 518.202709 237.359453 507.173669 
C 207.07736 496.144628 174.122489 494.697052 142.989971 503.028391 
C 111.857453 511.359731 84.030232 529.073138 63.304015 553.752457 
L 183.599929 654.779527 
z
" style="fill: #1f77b4"/>
   </g>
   <g id="patch_40">
    <path d="M 63.304015 553.752457 
C 48.247836 571.680293 37.388059 592.749206 31.521318 615.413653 
C 25.654577 638.0781 24.927924 661.769994 29.394663 684.751378 
L 183.599929 654.779527 
z
" style="fill: #ff7f0e"/>
   </g>
   <g id="patch_41">
    <path d="M 29.394663 684.751378 
C 31.571063 695.948962 34.960668 706.876251 39.503468 717.339787 
C 44.046269 727.803322 49.715297 737.740987 56.410186 746.976844 
L 183.599929 654.779527 
z
" style="fill: #2ca02c"/>
   </g>
   <g id="patch_42">
    <path d="M 56.410186 746.976844 
C 65.934025 760.115347 77.436395 771.699175 90.507364 781.315492 
C 103.578332 790.931809 118.060754 798.465005 133.438492 803.646603 
L 183.599929 654.779527 
z
" style="fill: #d62728"/>
   </g>
   <g id="patch_43">
    <path d="M 133.438492 803.646603 
C 140.821992 806.134507 148.380363 808.069657 156.051007 809.436027 
C 163.72165 810.802397 171.483329 811.596203 179.27176 811.810871 
L 183.599929 654.779527 
z
" style="fill: #9467bd"/>
   </g>
   <g id="patch_44">
    <path d="M 179.27176 811.810871 
C 184.924449 811.966673 190.581429 811.81714 196.217993 811.362925 
C 201.854557 810.90871 207.462486 810.150476 213.017287 809.091533 
L 183.599929 654.779527 
z
" style="fill: #8c564b"/>
   </g>
   <g id="patch_45">
    <path d="M 213.017287 809.091533 
C 229.096924 806.026182 244.599078 800.466284 258.961662 792.613432 
C 273.324246 784.76058 286.371548 774.710847 297.630492 762.828621 
L 183.599929 654.779527 
z
" style="fill: #e377c2"/>
   </g>
   <g id="patch_46">
    <path d="M 297.630492 762.828621 
C 304.414329 755.669239 310.508865 747.886859 315.833332 739.584616 
C 321.157799 731.282374 325.688572 722.497107 329.365607 713.345244 
L 183.599929 654.779527 
z
" style="fill: #7f7f7f"/>
   </g>
   <g id="patch_47">
    <path d="M 329.365607 713.345244 
C 333.097512 704.056813 335.933077 694.432904 337.833598 684.604878 
C 339.734118 674.776852 340.690909 664.78963 340.690909 654.779531 
L 183.599929 654.779527 
z
" style="fill: #bcbd22"/>
   </g>
   <g id="matplotlib.axis_7"/>
   <g id="matplotlib.axis_8"/>
   <g id="text_40">
    <!-- 38.9% -->
    <g transform="translate(199.97205 568.975387) scale(0.1 -0.1)">
     <use xlink:href="#DejaVuSans-33"/>
     <use xlink:href="#DejaVuSans-38" x="63.623047"/>
     <use xlink:href="#DejaVuSans-2e" x="127.246094"/>
     <use xlink:href="#DejaVuSans-39" x="159.033203"/>
     <use xlink:href="#DejaVuSans-25" x="222.65625"/>
    </g>
   </g>
   <g id="text_41">
    <!-- 14.2% -->
    <g transform="translate(76.469169 633.919378) scale(0.1 -0.1)">
     <use xlink:href="#DejaVuSans-31"/>
     <use xlink:href="#DejaVuSans-34" x="63.623047"/>
     <use xlink:href="#DejaVuSans-2e" x="127.246094"/>
     <use xlink:href="#DejaVuSans-32" x="159.033203"/>
     <use xlink:href="#DejaVuSans-25" x="222.65625"/>
    </g>
   </g>
   <g id="text_42">
    <!-- 6.9% -->
    <g transform="translate(84.439709 695.075058) scale(0.1 -0.1)">
     <use xlink:href="#DejaVuSans-36"/>
     <use xlink:href="#DejaVuSans-2e" x="63.623047"/>
     <use xlink:href="#DejaVuSans-39" x="95.410156"/>
     <use xlink:href="#DejaVuSans-25" x="159.033203"/>
    </g>
   </g>
   <g id="text_43">
    <!-- 9.8% -->
    <g transform="translate(115.042046 733.460481) scale(0.1 -0.1)">
     <use xlink:href="#DejaVuSans-39"/>
     <use xlink:href="#DejaVuSans-2e" x="63.623047"/>
     <use xlink:href="#DejaVuSans-38" x="95.410156"/>
     <use xlink:href="#DejaVuSans-25" x="159.033203"/>
    </g>
   </g>
   <g id="text_44">
    <!-- 4.7% -->
    <g transform="translate(154.368232 750.332802) scale(0.1 -0.1)">
     <use xlink:href="#DejaVuSans-34"/>
     <use xlink:href="#DejaVuSans-2e" x="63.623047"/>
     <use xlink:href="#DejaVuSans-37" x="95.410156"/>
     <use xlink:href="#DejaVuSans-25" x="159.033203"/>
    </g>
   </g>
   <g id="text_45">
    <!-- 3.4% -->
    <g transform="translate(178.468424 751.488941) scale(0.1 -0.1)">
     <use xlink:href="#DejaVuSans-33"/>
     <use xlink:href="#DejaVuSans-2e" x="63.623047"/>
     <use xlink:href="#DejaVuSans-34" x="95.410156"/>
     <use xlink:href="#DejaVuSans-25" x="159.033203"/>
    </g>
   </g>
   <g id="text_46">
    <!-- 9.9% -->
    <g transform="translate(216.114625 740.239245) scale(0.1 -0.1)">
     <use xlink:href="#DejaVuSans-39"/>
     <use xlink:href="#DejaVuSans-2e" x="63.623047"/>
     <use xlink:href="#DejaVuSans-39" x="95.410156"/>
     <use xlink:href="#DejaVuSans-25" x="159.033203"/>
    </g>
   </g>
   <g id="text_47">
    <!-- 6.0% -->
    <g transform="translate(250.237627 708.421956) scale(0.1 -0.1)">
     <use xlink:href="#DejaVuSans-36"/>
     <use xlink:href="#DejaVuSans-2e" x="63.623047"/>
     <use xlink:href="#DejaVuSans-30" x="95.410156"/>
     <use xlink:href="#DejaVuSans-25" x="159.033203"/>
    </g>
   </g>
   <g id="text_48">
    <!-- 6.1% -->
    <g transform="translate(263.437786 675.434113) scale(0.1 -0.1)">
     <use xlink:href="#DejaVuSans-36"/>
     <use xlink:href="#DejaVuSans-2e" x="63.623047"/>
     <use xlink:href="#DejaVuSans-31" x="95.410156"/>
     <use xlink:href="#DejaVuSans-25" x="159.033203"/>
    </g>
   </g>
   <g id="text_49">
    <!-- Engineering -->
    <g transform="translate(135.59875 450.36) scale(0.16 -0.16)">
     <use xlink:href="#DejaVuSans-45"/>
     <use xlink:href="#DejaVuSans-6e" x="63.183594"/>
     <use xlink:href="#DejaVuSans-67" x="126.5625"/>
     <use xlink:href="#DejaVuSans-69" x="190.039062"/>
     <use xlink:href="#DejaVuSans-6e" x="217.822266"/>
     <use xlink:href="#DejaVuSans-65" x="281.201172"/>
     <use xlink:href="#DejaVuSans-65" x="342.724609"/>
     <use xlink:href="#DejaVuSans-72" x="404.248047"/>
     <use xlink:href="#DejaVuSans-69" x="445.361328"/>
     <use xlink:href="#DejaVuSans-6e" x="473.144531"/>
     <use xlink:href="#DejaVuSans-67" x="536.523438"/>
    </g>
   </g>
  </g>
  <g id="axes_5">
   <g id="patch_48">
    <path d="M 697.090909 654.779561 
C 697.090909 622.769831 687.307188 591.512113 669.056962 565.214736 
C 650.806735 538.917358 624.947515 518.815943 594.960815 507.616808 
C 564.974114 496.417674 532.268901 494.647028 501.248386 502.543259 
C 470.227871 510.43949 442.349597 527.631582 421.366909 551.804907 
L 539.999935 654.779561 
z
" style="fill: #1f77b4"/>
   </g>
   <g id="patch_49">
    <path d="M 421.366909 551.804907 
C 406.023242 569.481738 394.822687 590.366523 388.586589 612.927763 
C 382.350491 635.489004 381.235102 659.161405 385.322214 682.209051 
L 539.999935 654.779561 
z
" style="fill: #ff7f0e"/>
   </g>
   <g id="patch_50">
    <path d="M 385.322214 682.209051 
C 387.328335 693.521779 390.569492 704.580359 394.987477 715.186195 
C 399.405462 725.792031 404.973669 735.881251 411.5921 745.272668 
L 539.999935 654.779561 
z
" style="fill: #2ca02c"/>
   </g>
   <g id="patch_51">
    <path d="M 411.5921 745.272668 
C 420.650351 758.126137 431.5874 769.54698 444.037006 779.152753 
C 456.486612 788.758526 470.308241 796.440797 485.039055 801.942315 
L 539.999935 654.779561 
z
" style="fill: #d62728"/>
   </g>
   <g id="patch_52">
    <path d="M 485.039055 801.942315 
C 492.348107 804.672027 499.850376 806.853428 507.483555 808.468401 
C 515.116735 810.083374 522.859634 811.127436 530.647948 811.591916 
L 539.999935 654.779561 
z
" style="fill: #9467bd"/>
   </g>
   <g id="patch_53">
    <path d="M 530.647948 811.591916 
C 536.430861 811.936798 542.228428 811.961523 548.014073 811.665979 
C 553.799718 811.370434 559.564588 810.755071 565.282257 809.822712 
L 539.999935 654.779561 
z
" style="fill: #8c564b"/>
   </g>
   <g id="patch_54">
    <path d="M 565.282257 809.822712 
C 581.272451 807.215249 596.763454 802.149716 611.204924 794.806072 
C 625.646394 787.462429 638.865263 777.928683 650.39191 766.543536 
L 539.999935 654.779561 
z
" style="fill: #e377c2"/>
   </g>
   <g id="patch_55">
    <path d="M 650.39191 766.543536 
C 658.147792 758.882864 665.08523 750.435626 671.092002 741.338467 
C 677.098774 732.241308 682.142315 722.543547 686.141039 712.402057 
L 539.999935 654.779561 
z
" style="fill: #7f7f7f"/>
   </g>
   <g id="patch_56">
    <path d="M 686.141039 712.402057 
C 689.750637 703.247461 692.492067 693.773914 694.329164 684.106396 
C 696.16626 674.438878 697.090908 664.620092 697.090909 654.779573 
L 539.999935 654.779561 
z
" style="fill: #bcbd22"/>
   </g>
   <g id="matplotlib.axis_9"/>
   <g id="matplotlib.axis_10"/>
   <g id="text_50">
    <!-- 38.6% -->
    <g transform="translate(557.092869 569.241285) scale(0.1 -0.1)">
     <use xlink:href="#DejaVuSans-33"/>
     <use xlink:href="#DejaVuSans-38" x="63.623047"/>
     <use xlink:href="#DejaVuSans-2e" x="127.246094"/>
     <use xlink:href="#DejaVuSans-36" x="159.033203"/>
     <use xlink:href="#DejaVuSans-25" x="222.65625"/>
    </g>
   </g>
   <g id="text_51">
    <!-- 14.2% -->
    <g transform="translate(433.268333 632.427858) scale(0.1 -0.1)">
     <use xlink:href="#DejaVuSans-31"/>
     <use xlink:href="#DejaVuSans-34" x="63.623047"/>
     <use xlink:href="#DejaVuSans-2e" x="127.246094"/>
     <use xlink:href="#DejaVuSans-32" x="159.033203"/>
     <use xlink:href="#DejaVuSans-25" x="222.65625"/>
    </g>
   </g>
   <g id="text_52">
    <!-- 7.0% -->
    <g transform="translate(440.290116 693.782917) scale(0.1 -0.1)">
     <use xlink:href="#DejaVuSans-37"/>
     <use xlink:href="#DejaVuSans-2e" x="63.623047"/>
     <use xlink:href="#DejaVuSans-30" x="95.410156"/>
     <use xlink:href="#DejaVuSans-25" x="159.033203"/>
    </g>
   </g>
   <g id="text_53">
    <!-- 9.5% -->
    <g transform="translate(469.719834 732.162851) scale(0.1 -0.1)">
     <use xlink:href="#DejaVuSans-39"/>
     <use xlink:href="#DejaVuSans-2e" x="63.623047"/>
     <use xlink:href="#DejaVuSans-35" x="95.410156"/>
     <use xlink:href="#DejaVuSans-25" x="159.033203"/>
    </g>
   </g>
   <g id="text_54">
    <!-- 4.7% -->
    <g transform="translate(507.787763 749.75224) scale(0.1 -0.1)">
     <use xlink:href="#DejaVuSans-34"/>
     <use xlink:href="#DejaVuSans-2e" x="63.623047"/>
     <use xlink:href="#DejaVuSans-37" x="95.410156"/>
     <use xlink:href="#DejaVuSans-25" x="159.033203"/>
    </g>
   </g>
   <g id="text_55">
    <!-- 3.5% -->
    <g transform="translate(532.106074 751.670787) scale(0.1 -0.1)">
     <use xlink:href="#DejaVuSans-33"/>
     <use xlink:href="#DejaVuSans-2e" x="63.623047"/>
     <use xlink:href="#DejaVuSans-35" x="95.410156"/>
     <use xlink:href="#DejaVuSans-25" x="159.033203"/>
    </g>
   </g>
   <g id="text_56">
    <!-- 9.8% -->
    <g transform="translate(570.020585 741.554843) scale(0.1 -0.1)">
     <use xlink:href="#DejaVuSans-39"/>
     <use xlink:href="#DejaVuSans-2e" x="63.623047"/>
     <use xlink:href="#DejaVuSans-38" x="95.410156"/>
     <use xlink:href="#DejaVuSans-25" x="159.033203"/>
    </g>
   </g>
   <g id="text_57">
    <!-- 6.6% -->
    <g transform="translate(605.952831 709.47428) scale(0.1 -0.1)">
     <use xlink:href="#DejaVuSans-36"/>
     <use xlink:href="#DejaVuSans-2e" x="63.623047"/>
     <use xlink:href="#DejaVuSans-36" x="95.410156"/>
     <use xlink:href="#DejaVuSans-25" x="159.033203"/>
    </g>
   </g>
   <g id="text_58">
    <!-- 6.0% -->
    <g transform="translate(619.895128 675.135037) scale(0.1 -0.1)">
     <use xlink:href="#DejaVuSans-36"/>
     <use xlink:href="#DejaVuSans-2e" x="63.623047"/>
     <use xlink:href="#DejaVuSans-30" x="95.410156"/>
     <use xlink:href="#DejaVuSans-25" x="159.033203"/>
    </g>
   </g>
   <g id="text_59">
    <!-- Psychology -->
    <g transform="translate(495.11875 450.36) scale(0.16 -0.16)">
     <use xlink:href="#DejaVuSans-50"/>
     <use xlink:href="#DejaVuSans-73" x="58.552734"/>
     <use xlink:href="#DejaVuSans-79" x="110.652344"/>
     <use xlink:href="#DejaVuSans-63" x="169.832031"/>
     <use xlink:href="#DejaVuSans-68" x="224.8125"/>
     <use xlink:href="#DejaVuSans-6f" x="288.191406"/>
     <use xlink:href="#DejaVuSans-6c" x="349.373047"/>
     <use xlink:href="#DejaVuSans-6f" x="377.15625"/>
     <use xlink:href="#DejaVuSans-67" x="438.337891"/>
     <use xlink:href="#DejaVuSans-79" x="501.814453"/>
    </g>
   </g>
  </g>
  <g id="axes_6"/>
 </g>
</svg>
