<svg id="Layer_1" data-name="Layer 1" xmlns="http://www.w3.org/2000/svg" xmlns:xlink="http://www.w3.org/1999/xlink" viewBox="0 0 577.23 177.72"><defs><style>.cls-1,.cls-12,.cls-21,.cls-22,.cls-9{fill:none;}.cls-2{fill:#f5f5f5;fill-opacity:0.4;}.cls-3{fill-opacity:0;}.cls-4{fill:#f7f7f7;}.cls-5{clip-path:url(#clip-path);}.cls-20,.cls-6,.cls-7,.cls-8{isolation:isolate;}.cls-6,.cls-7{font-size:15px;fill:#555;}.cls-20,.cls-6{font-family:CenturyGothic, Century Gothic;}.cls-7{font-family:MyriadPro-Regular, Myriad Pro;}.cls-8{font-size:30px;fill:#d8504c;font-family:Calibri;}.cls-12,.cls-9{stroke:#e6e6e6;}.cls-12,.cls-22,.cls-9{stroke-linecap:square;}.cls-12,.cls-21,.cls-22,.cls-9{stroke-linejoin:bevel;}.cls-21,.cls-9{stroke-width:2px;}.cls-10{clip-path:url(#clip-path-8);}.cls-11{clip-path:url(#clip-path-12);}.cls-12{stroke-dasharray:1 2;}.cls-13{clip-path:url(#clip-path-13);}.cls-14{fill:#7f7f7f;}.cls-14,.cls-19{fill-opacity:0.68;}.cls-15{clip-path:url(#clip-path-14);}.cls-16{clip-path:url(#clip-path-15);}.cls-17{clip-path:url(#clip-path-16);}.cls-18{clip-path:url(#clip-path-17);}.cls-19{fill:#ff7f0e;}.cls-20{font-size:13px;}.cls-21{stroke:#898989;}.cls-22{stroke:#acacac;}</style><clipPath id="clip-path"><rect class="cls-1" x="-90.79" y="-0.6" width="224" height="465"/></clipPath><clipPath id="clip-path-8"><rect class="cls-1" x="132.21" y="0.4" width="445" height="464"/></clipPath><clipPath id="clip-path-12"><rect class="cls-1" x="132.21" y="0.4" width="444" height="463"/></clipPath><clipPath id="clip-path-13"><rect class="cls-1" x="132.21" y="0.4" width="444" height="36"/></clipPath><clipPath id="clip-path-14"><rect class="cls-1" x="132.21" y="36.4" width="444" height="35"/></clipPath><clipPath id="clip-path-15"><rect class="cls-1" x="132.21" y="71.4" width="444" height="36"/></clipPath><clipPath id="clip-path-16"><rect class="cls-1" x="132.21" y="107.4" width="444" height="35"/></clipPath><clipPath id="clip-path-17"><rect class="cls-1" x="132.21" y="142.4" width="444" height="36"/></clipPath></defs><rect class="cls-2" x="-98.79" y="-66.6" width="1367" height="901"/><rect class="cls-3" x="-90.79" y="-0.6" width="668" height="495"/><rect class="cls-4" x="-89.79" y="0.4" width="666" height="493"/><g class="cls-5"><text class="cls-6" transform="translate(15.21 23.4)">Khu v</text><text class="cls-7" transform="translate(54.78 23.4)">ự</text><text class="cls-6" transform="translate(63.87 23.4)">c E</text></g><g class="cls-5"><text class="cls-6" transform="translate(15.21 59.4)">Khu v</text><text class="cls-7" transform="translate(54.78 59.4)">ự</text><text class="cls-6" transform="translate(63.87 59.4)">c C</text></g><g class="cls-5"><text class="cls-6" transform="translate(15.21 94.4)">Khu v</text><text class="cls-7" transform="translate(54.78 94.4)">ự</text><text class="cls-6" transform="translate(63.87 94.4)">c D</text></g><g class="cls-5"><text class="cls-6" transform="translate(15.21 130.4)">Khu v</text><text class="cls-7" transform="translate(54.78 130.4)">ự</text><text class="cls-6" transform="translate(63.87 130.4)">c B</text></g><g class="cls-5"><text class="cls-6" transform="translate(15.21 165.4)">Khu v</text><text class="cls-7" transform="translate(54.78 165.4)">ự</text><text class="cls-6" transform="translate(63.87 165.4)">c A</text></g><g class="cls-5"><text class="cls-8" transform="translate(104.74 170.4)">•</text></g><g class="cls-5"><line class="cls-9" x1="132.21" y1="1.4" x2="-89.79" y2="1.4"/><line class="cls-9" x1="132.21" y1="178.4" x2="-89.79" y2="178.4"/></g><g class="cls-10"><rect class="cls-4" x="132.21" y="0.4" width="445" height="464"/></g><g class="cls-10"><rect class="cls-4" x="132.21" y="0.4" width="445" height="464"/></g><g class="cls-10"><rect class="cls-4" x="132.21" y="0.4" width="445" height="464"/></g><g class="cls-10"><rect class="cls-4" x="132.21" y="0.4" width="445" height="464"/></g><g class="cls-11"><line class="cls-12" x1="132.21" y1="35.4" x2="576.21" y2="35.4"/><line class="cls-12" x1="132.21" y1="71.4" x2="576.21" y2="71.4"/><line class="cls-12" x1="132.21" y1="106.4" x2="576.21" y2="106.4"/><line class="cls-12" x1="132.21" y1="142.4" x2="576.21" y2="142.4"/></g><g class="cls-13"><rect class="cls-14" x="116.21" y="6.4" width="350" height="23"/></g><g class="cls-15"><rect class="cls-14" x="116.21" y="42.4" width="343" height="23"/></g><g class="cls-16"><rect class="cls-14" x="116.21" y="78.4" width="263" height="23"/></g><g class="cls-17"><rect class="cls-14" x="116.21" y="113.4" width="231" height="23"/></g><g class="cls-18"><rect class="cls-19" x="116.21" y="149.4" width="198" height="23"/></g><g class="cls-13"><text class="cls-20" transform="translate(132.21 21.4)">46.9%</text></g><g class="cls-15"><text class="cls-20" transform="translate(132.21 57.4)">45.9%</text></g><g class="cls-16"><text class="cls-20" transform="translate(132.21 93.4)">35.2%</text></g><g class="cls-17"><text class="cls-20" transform="translate(132.21 128.4)">30.9%</text></g><g class="cls-18"><text class="cls-20" transform="translate(132.21 164.4)">26.5%</text></g><g class="cls-13"><line class="cls-21" x1="444.21" y1="0.4" x2="444.21" y2="36.4"/></g><g class="cls-15"><line class="cls-21" x1="424.21" y1="36.4" x2="424.21" y2="71.4"/></g><g class="cls-16"><line class="cls-21" x1="348.21" y1="71.4" x2="348.21" y2="107.4"/></g><g class="cls-17"><line class="cls-21" x1="346.21" y1="107.4" x2="346.21" y2="142.4"/></g><g class="cls-18"><line class="cls-21" x1="541.21" y1="142.4" x2="541.21" y2="178.4"/></g><g class="cls-10"><line class="cls-22" x1="132.21" y1="0.4" x2="132.21" y2="463.4"/></g></svg>