<?xml version="1.0" encoding="utf-8" standalone="no"?>
<!DOCTYPE svg PUBLIC "-//W3C//DTD SVG 1.1//EN"
  "http://www.w3.org/Graphics/SVG/1.1/DTD/svg11.dtd">
<svg xmlns:xlink="http://www.w3.org/1999/xlink" width="1440pt" height="720pt" viewBox="0 0 1440 720" xmlns="http://www.w3.org/2000/svg" version="1.1">
 <metadata>
  <rdf:RDF xmlns:dc="http://purl.org/dc/elements/1.1/" xmlns:cc="http://creativecommons.org/ns#" xmlns:rdf="http://www.w3.org/1999/02/22-rdf-syntax-ns#">
   <cc:Work>
    <dc:type rdf:resource="http://purl.org/dc/dcmitype/StillImage"/>
    <dc:date>2024-03-24T07:44:59.365337</dc:date>
    <dc:format>image/svg+xml</dc:format>
    <dc:creator>
     <cc:Agent>
      <dc:title>Matplotlib v3.8.0, https://matplotlib.org/</dc:title>
     </cc:Agent>
    </dc:creator>
   </cc:Work>
  </rdf:RDF>
 </metadata>
 <defs>
  <style type="text/css">*{stroke-linejoin: round; stroke-linecap: butt}</style>
 </defs>
 <g id="figure_1">
  <g id="patch_1">
   <path d="M 0 720 
L 1440 720 
L 1440 0 
L 0 0 
z
" style="fill: #ffffff"/>
  </g>
  <g id="axes_1">
   <g id="patch_2">
    <path d="M 398.347826 212.4 
C 398.347826 193.836306 393.021182 175.656704 383.002882 160.028383 
C 372.984582 144.400063 358.689193 131.969739 341.820869 124.21923 
C 324.952545 116.468722 306.209314 113.718752 287.825554 116.297145 
C 269.441794 118.875538 252.178244 126.675597 238.092891 138.767477 
L 301.304348 212.4 
z
" style="fill: #1f77b4"/>
   </g>
   <g id="patch_3">
    <path d="M 238.092891 138.767477 
C 225.274028 149.772112 215.54838 163.935829 209.88198 179.851768 
C 204.21558 195.767708 202.802465 212.890857 205.782996 229.520398 
C 208.763527 246.14994 216.035643 261.716425 226.877013 274.673659 
C 237.718384 287.630892 251.757767 297.535176 267.600652 303.402734 
L 301.304348 212.4 
z
" style="fill: #ff7f0e"/>
   </g>
   <g id="patch_4">
    <path d="M 267.600652 303.402734 
C 282.272864 308.836722 298.043919 310.642599 313.5647 308.665884 
C 329.085481 306.689169 343.900429 300.987881 356.742216 292.04973 
C 369.584003 283.111579 380.075703 271.198914 387.319816 257.330789 
C 394.563929 243.462665 398.347829 228.046133 398.347826 212.399982 
L 301.304348 212.4 
z
" style="fill: #2ca02c"/>
   </g>
   <g id="matplotlib.axis_1"/>
   <g id="matplotlib.axis_2"/>
   <g id="text_1">
    <!-- 36.29 -->
    <g transform="translate(311.300198 162.250913) scale(0.1 -0.1)">
     <defs>
      <path id="DejaVuSans-33" d="M 2597 2516 
Q 3050 2419 3304 2112 
Q 3559 1806 3559 1356 
Q 3559 666 3084 287 
Q 2609 -91 1734 -91 
Q 1441 -91 1130 -33 
Q 819 25 488 141 
L 488 750 
Q 750 597 1062 519 
Q 1375 441 1716 441 
Q 2309 441 2620 675 
Q 2931 909 2931 1356 
Q 2931 1769 2642 2001 
Q 2353 2234 1838 2234 
L 1294 2234 
L 1294 2753 
L 1863 2753 
Q 2328 2753 2575 2939 
Q 2822 3125 2822 3475 
Q 2822 3834 2567 4026 
Q 2313 4219 1838 4219 
Q 1578 4219 1281 4162 
Q 984 4106 628 3988 
L 628 4550 
Q 988 4650 1302 4700 
Q 1616 4750 1894 4750 
Q 2613 4750 3031 4423 
Q 3450 4097 3450 3541 
Q 3450 3153 3228 2886 
Q 3006 2619 2597 2516 
z
" transform="scale(0.015625)"/>
      <path id="DejaVuSans-36" d="M 2113 2584 
Q 1688 2584 1439 2293 
Q 1191 2003 1191 1497 
Q 1191 994 1439 701 
Q 1688 409 2113 409 
Q 2538 409 2786 701 
Q 3034 994 3034 1497 
Q 3034 2003 2786 2293 
Q 2538 2584 2113 2584 
z
M 3366 4563 
L 3366 3988 
Q 3128 4100 2886 4159 
Q 2644 4219 2406 4219 
Q 1781 4219 1451 3797 
Q 1122 3375 1075 2522 
Q 1259 2794 1537 2939 
Q 1816 3084 2150 3084 
Q 2853 3084 3261 2657 
Q 3669 2231 3669 1497 
Q 3669 778 3244 343 
Q 2819 -91 2113 -91 
Q 1303 -91 875 529 
Q 447 1150 447 2328 
Q 447 3434 972 4092 
Q 1497 4750 2381 4750 
Q 2619 4750 2861 4703 
Q 3103 4656 3366 4563 
z
" transform="scale(0.015625)"/>
      <path id="DejaVuSans-2e" d="M 684 794 
L 1344 794 
L 1344 0 
L 684 0 
L 684 794 
z
" transform="scale(0.015625)"/>
      <path id="DejaVuSans-32" d="M 1228 531 
L 3431 531 
L 3431 0 
L 469 0 
L 469 531 
Q 828 903 1448 1529 
Q 2069 2156 2228 2338 
Q 2531 2678 2651 2914 
Q 2772 3150 2772 3378 
Q 2772 3750 2511 3984 
Q 2250 4219 1831 4219 
Q 1534 4219 1204 4116 
Q 875 4013 500 3803 
L 500 4441 
Q 881 4594 1212 4672 
Q 1544 4750 1819 4750 
Q 2544 4750 2975 4387 
Q 3406 4025 3406 3419 
Q 3406 3131 3298 2873 
Q 3191 2616 2906 2266 
Q 2828 2175 2409 1742 
Q 1991 1309 1228 531 
z
" transform="scale(0.015625)"/>
      <path id="DejaVuSans-39" d="M 703 97 
L 703 672 
Q 941 559 1184 500 
Q 1428 441 1663 441 
Q 2288 441 2617 861 
Q 2947 1281 2994 2138 
Q 2813 1869 2534 1725 
Q 2256 1581 1919 1581 
Q 1219 1581 811 2004 
Q 403 2428 403 3163 
Q 403 3881 828 4315 
Q 1253 4750 1959 4750 
Q 2769 4750 3195 4129 
Q 3622 3509 3622 2328 
Q 3622 1225 3098 567 
Q 2575 -91 1691 -91 
Q 1453 -91 1209 -44 
Q 966 3 703 97 
z
M 1959 2075 
Q 2384 2075 2632 2365 
Q 2881 2656 2881 3163 
Q 2881 3666 2632 3958 
Q 2384 4250 1959 4250 
Q 1534 4250 1286 3958 
Q 1038 3666 1038 3163 
Q 1038 2656 1286 2365 
Q 1534 2075 1959 2075 
z
" transform="scale(0.015625)"/>
     </defs>
     <use xlink:href="#DejaVuSans-33"/>
     <use xlink:href="#DejaVuSans-36" x="63.623047"/>
     <use xlink:href="#DejaVuSans-2e" x="127.246094"/>
     <use xlink:href="#DejaVuSans-32" x="159.033203"/>
     <use xlink:href="#DejaVuSans-39" x="222.65625"/>
    </g>
   </g>
   <g id="text_2">
    <!-- 33.06 -->
    <g transform="translate(229.677474 225.431614) scale(0.1 -0.1)">
     <defs>
      <path id="DejaVuSans-30" d="M 2034 4250 
Q 1547 4250 1301 3770 
Q 1056 3291 1056 2328 
Q 1056 1369 1301 889 
Q 1547 409 2034 409 
Q 2525 409 2770 889 
Q 3016 1369 3016 2328 
Q 3016 3291 2770 3770 
Q 2525 4250 2034 4250 
z
M 2034 4750 
Q 2819 4750 3233 4129 
Q 3647 3509 3647 2328 
Q 3647 1150 3233 529 
Q 2819 -91 2034 -91 
Q 1250 -91 836 529 
Q 422 1150 422 2328 
Q 422 3509 836 4129 
Q 1250 4750 2034 4750 
z
" transform="scale(0.015625)"/>
     </defs>
     <use xlink:href="#DejaVuSans-33"/>
     <use xlink:href="#DejaVuSans-33" x="63.623047"/>
     <use xlink:href="#DejaVuSans-2e" x="127.246094"/>
     <use xlink:href="#DejaVuSans-30" x="159.033203"/>
     <use xlink:href="#DejaVuSans-36" x="222.65625"/>
    </g>
   </g>
   <g id="text_3">
    <!-- 30.65 -->
    <g transform="translate(320.253006 262.949213) scale(0.1 -0.1)">
     <defs>
      <path id="DejaVuSans-35" d="M 691 4666 
L 3169 4666 
L 3169 4134 
L 1269 4134 
L 1269 2991 
Q 1406 3038 1543 3061 
Q 1681 3084 1819 3084 
Q 2600 3084 3056 2656 
Q 3513 2228 3513 1497 
Q 3513 744 3044 326 
Q 2575 -91 1722 -91 
Q 1428 -91 1123 -41 
Q 819 9 494 109 
L 494 744 
Q 775 591 1075 516 
Q 1375 441 1709 441 
Q 2250 441 2565 725 
Q 2881 1009 2881 1497 
Q 2881 1984 2565 2268 
Q 2250 2553 1709 2553 
Q 1456 2553 1204 2497 
Q 953 2441 691 2322 
L 691 4666 
z
" transform="scale(0.015625)"/>
     </defs>
     <use xlink:href="#DejaVuSans-33"/>
     <use xlink:href="#DejaVuSans-30" x="63.623047"/>
     <use xlink:href="#DejaVuSans-2e" x="127.246094"/>
     <use xlink:href="#DejaVuSans-36" x="159.033203"/>
     <use xlink:href="#DejaVuSans-35" x="222.65625"/>
    </g>
   </g>
   <g id="text_4">
    <!-- Age: 18 -->
    <g transform="translate(278.13591 85.095652) scale(0.12 -0.12)">
     <defs>
      <path id="DejaVuSans-41" d="M 2188 4044 
L 1331 1722 
L 3047 1722 
L 2188 4044 
z
M 1831 4666 
L 2547 4666 
L 4325 0 
L 3669 0 
L 3244 1197 
L 1141 1197 
L 716 0 
L 50 0 
L 1831 4666 
z
" transform="scale(0.015625)"/>
      <path id="DejaVuSans-67" d="M 2906 1791 
Q 2906 2416 2648 2759 
Q 2391 3103 1925 3103 
Q 1463 3103 1205 2759 
Q 947 2416 947 1791 
Q 947 1169 1205 825 
Q 1463 481 1925 481 
Q 2391 481 2648 825 
Q 2906 1169 2906 1791 
z
M 3481 434 
Q 3481 -459 3084 -895 
Q 2688 -1331 1869 -1331 
Q 1566 -1331 1297 -1286 
Q 1028 -1241 775 -1147 
L 775 -588 
Q 1028 -725 1275 -790 
Q 1522 -856 1778 -856 
Q 2344 -856 2625 -561 
Q 2906 -266 2906 331 
L 2906 616 
Q 2728 306 2450 153 
Q 2172 0 1784 0 
Q 1141 0 747 490 
Q 353 981 353 1791 
Q 353 2603 747 3093 
Q 1141 3584 1784 3584 
Q 2172 3584 2450 3431 
Q 2728 3278 2906 2969 
L 2906 3500 
L 3481 3500 
L 3481 434 
z
" transform="scale(0.015625)"/>
      <path id="DejaVuSans-65" d="M 3597 1894 
L 3597 1613 
L 953 1613 
Q 991 1019 1311 708 
Q 1631 397 2203 397 
Q 2534 397 2845 478 
Q 3156 559 3463 722 
L 3463 178 
Q 3153 47 2828 -22 
Q 2503 -91 2169 -91 
Q 1331 -91 842 396 
Q 353 884 353 1716 
Q 353 2575 817 3079 
Q 1281 3584 2069 3584 
Q 2775 3584 3186 3129 
Q 3597 2675 3597 1894 
z
M 3022 2063 
Q 3016 2534 2758 2815 
Q 2500 3097 2075 3097 
Q 1594 3097 1305 2825 
Q 1016 2553 972 2059 
L 3022 2063 
z
" transform="scale(0.015625)"/>
      <path id="DejaVuSans-3a" d="M 750 794 
L 1409 794 
L 1409 0 
L 750 0 
L 750 794 
z
M 750 3309 
L 1409 3309 
L 1409 2516 
L 750 2516 
L 750 3309 
z
" transform="scale(0.015625)"/>
      <path id="DejaVuSans-20" transform="scale(0.015625)"/>
      <path id="DejaVuSans-31" d="M 794 531 
L 1825 531 
L 1825 4091 
L 703 3866 
L 703 4441 
L 1819 4666 
L 2450 4666 
L 2450 531 
L 3481 531 
L 3481 0 
L 794 0 
L 794 531 
z
" transform="scale(0.015625)"/>
      <path id="DejaVuSans-38" d="M 2034 2216 
Q 1584 2216 1326 1975 
Q 1069 1734 1069 1313 
Q 1069 891 1326 650 
Q 1584 409 2034 409 
Q 2484 409 2743 651 
Q 3003 894 3003 1313 
Q 3003 1734 2745 1975 
Q 2488 2216 2034 2216 
z
M 1403 2484 
Q 997 2584 770 2862 
Q 544 3141 544 3541 
Q 544 4100 942 4425 
Q 1341 4750 2034 4750 
Q 2731 4750 3128 4425 
Q 3525 4100 3525 3541 
Q 3525 3141 3298 2862 
Q 3072 2584 2669 2484 
Q 3125 2378 3379 2068 
Q 3634 1759 3634 1313 
Q 3634 634 3220 271 
Q 2806 -91 2034 -91 
Q 1263 -91 848 271 
Q 434 634 434 1313 
Q 434 1759 690 2068 
Q 947 2378 1403 2484 
z
M 1172 3481 
Q 1172 3119 1398 2916 
Q 1625 2713 2034 2713 
Q 2441 2713 2670 2916 
Q 2900 3119 2900 3481 
Q 2900 3844 2670 4047 
Q 2441 4250 2034 4250 
Q 1625 4250 1398 4047 
Q 1172 3844 1172 3481 
z
" transform="scale(0.015625)"/>
     </defs>
     <use xlink:href="#DejaVuSans-41"/>
     <use xlink:href="#DejaVuSans-67" x="68.408203"/>
     <use xlink:href="#DejaVuSans-65" x="131.884766"/>
     <use xlink:href="#DejaVuSans-3a" x="193.408203"/>
     <use xlink:href="#DejaVuSans-20" x="227.099609"/>
     <use xlink:href="#DejaVuSans-31" x="258.886719"/>
     <use xlink:href="#DejaVuSans-38" x="322.509766"/>
    </g>
   </g>
  </g>
  <g id="axes_2">
   <g id="patch_5">
    <path d="M 689.478261 212.4 
C 689.478261 192.005985 683.049454 172.121795 671.110198 155.587891 
C 659.170942 139.053987 642.318168 126.697022 622.959299 120.282192 
C 603.600431 113.867362 582.703363 113.715391 563.253245 119.84799 
C 543.803128 125.980589 526.772418 138.091142 514.593958 154.449654 
L 592.434783 212.4 
z
" style="fill: #1f77b4"/>
   </g>
   <g id="patch_6">
    <path d="M 514.593958 154.449654 
C 504.422304 168.112556 498.024936 184.215695 496.047477 201.133942 
C 494.070018 218.052189 496.581305 235.196601 503.327899 250.836962 
C 510.074493 266.477323 520.821538 280.069175 534.48444 290.240828 
C 548.147342 300.412481 564.250482 306.809847 581.168729 308.787306 
L 592.434783 212.4 
z
" style="fill: #ff7f0e"/>
   </g>
   <g id="patch_7">
    <path d="M 581.168729 308.787306 
C 594.770422 310.377115 608.555849 309.069961 621.616324 304.952009 
C 634.6768 300.834056 646.718911 293.997816 656.948888 284.893909 
C 667.178865 275.790002 675.366884 264.622953 680.97322 252.128853 
C 686.579557 239.634752 689.478261 226.094289 689.478261 212.4 
L 592.434783 212.4 
z
" style="fill: #2ca02c"/>
   </g>
   <g id="matplotlib.axis_3"/>
   <g id="matplotlib.axis_4"/>
   <g id="text_5">
    <!-- 39.81 -->
    <g transform="translate(596.43543 159.88869) scale(0.1 -0.1)">
     <use xlink:href="#DejaVuSans-33"/>
     <use xlink:href="#DejaVuSans-39" x="63.623047"/>
     <use xlink:href="#DejaVuSans-2e" x="127.246094"/>
     <use xlink:href="#DejaVuSans-38" x="159.033203"/>
     <use xlink:href="#DejaVuSans-31" x="222.65625"/>
    </g>
   </g>
   <g id="text_6">
    <!-- 33.33 -->
    <g transform="translate(524.65659 238.221552) scale(0.1 -0.1)">
     <use xlink:href="#DejaVuSans-33"/>
     <use xlink:href="#DejaVuSans-33" x="63.623047"/>
     <use xlink:href="#DejaVuSans-2e" x="127.246094"/>
     <use xlink:href="#DejaVuSans-33" x="159.033203"/>
     <use xlink:href="#DejaVuSans-33" x="222.65625"/>
    </g>
   </g>
   <g id="text_7">
    <!-- 26.85 -->
    <g transform="translate(616.829183 258.65572) scale(0.1 -0.1)">
     <use xlink:href="#DejaVuSans-32"/>
     <use xlink:href="#DejaVuSans-36" x="63.623047"/>
     <use xlink:href="#DejaVuSans-2e" x="127.246094"/>
     <use xlink:href="#DejaVuSans-38" x="159.033203"/>
     <use xlink:href="#DejaVuSans-35" x="222.65625"/>
    </g>
   </g>
   <g id="text_8">
    <!-- Age: 19 -->
    <g transform="translate(569.266345 85.095652) scale(0.12 -0.12)">
     <use xlink:href="#DejaVuSans-41"/>
     <use xlink:href="#DejaVuSans-67" x="68.408203"/>
     <use xlink:href="#DejaVuSans-65" x="131.884766"/>
     <use xlink:href="#DejaVuSans-3a" x="193.408203"/>
     <use xlink:href="#DejaVuSans-20" x="227.099609"/>
     <use xlink:href="#DejaVuSans-31" x="258.886719"/>
     <use xlink:href="#DejaVuSans-39" x="322.509766"/>
    </g>
   </g>
  </g>
  <g id="axes_3">
   <g id="patch_8">
    <path d="M 980.608696 212.4 
C 980.608696 189.747365 972.677067 167.794431 958.198251 150.373015 
C 943.719435 132.951598 923.587884 121.137934 901.317496 116.99406 
C 879.047107 112.850187 856.013671 116.632099 836.237602 127.679675 
C 816.461532 138.727251 801.164526 156.35801 793.01663 177.494557 
L 883.565217 212.4 
z
" style="fill: #1f77b4"/>
   </g>
   <g id="patch_9">
    <path d="M 793.01663 177.494557 
C 787.39158 192.08656 785.376278 207.824344 787.142961 223.362895 
C 788.909643 238.901446 794.406504 253.785121 803.16376 266.741903 
C 811.921017 279.698684 823.681876 290.348636 837.441208 297.78157 
C 851.20054 305.214504 866.554875 309.212461 882.191971 309.433761 
L 883.565217 212.4 
z
" style="fill: #ff7f0e"/>
   </g>
   <g id="patch_10">
    <path d="M 882.191971 309.433761 
C 895.049864 309.61573 907.816615 307.240207 919.748507 302.445578 
C 931.6804 297.65095 942.54115 290.532161 951.698073 281.503912 
C 960.854996 272.475663 968.126761 261.716737 973.089756 249.853887 
C 978.052751 237.991038 980.608696 225.25918 980.608696 212.4 
L 883.565217 212.4 
z
" style="fill: #2ca02c"/>
   </g>
   <g id="matplotlib.axis_5"/>
   <g id="matplotlib.axis_6"/>
   <g id="text_9">
    <!-- 44.14 -->
    <g transform="translate(879.902522 157.915811) scale(0.1 -0.1)">
     <defs>
      <path id="DejaVuSans-34" d="M 2419 4116 
L 825 1625 
L 2419 1625 
L 2419 4116 
z
M 2253 4666 
L 3047 4666 
L 3047 1625 
L 3713 1625 
L 3713 1100 
L 3047 1100 
L 3047 0 
L 2419 0 
L 2419 1100 
L 313 1100 
L 313 1709 
L 2253 4666 
z
" transform="scale(0.015625)"/>
     </defs>
     <use xlink:href="#DejaVuSans-34"/>
     <use xlink:href="#DejaVuSans-34" x="63.623047"/>
     <use xlink:href="#DejaVuSans-2e" x="127.246094"/>
     <use xlink:href="#DejaVuSans-31" x="159.033203"/>
     <use xlink:href="#DejaVuSans-34" x="222.65625"/>
    </g>
   </g>
   <g id="text_10">
    <!-- 30.63 -->
    <g transform="translate(821.010281 247.764517) scale(0.1 -0.1)">
     <use xlink:href="#DejaVuSans-33"/>
     <use xlink:href="#DejaVuSans-30" x="63.623047"/>
     <use xlink:href="#DejaVuSans-2e" x="127.246094"/>
     <use xlink:href="#DejaVuSans-36" x="159.033203"/>
     <use xlink:href="#DejaVuSans-33" x="222.65625"/>
    </g>
   </g>
   <g id="text_11">
    <!-- 25.23 -->
    <g transform="translate(910.130868 256.621722) scale(0.1 -0.1)">
     <use xlink:href="#DejaVuSans-32"/>
     <use xlink:href="#DejaVuSans-35" x="63.623047"/>
     <use xlink:href="#DejaVuSans-2e" x="127.246094"/>
     <use xlink:href="#DejaVuSans-32" x="159.033203"/>
     <use xlink:href="#DejaVuSans-33" x="222.65625"/>
    </g>
   </g>
   <g id="text_12">
    <!-- Age: 20 -->
    <g transform="translate(860.39678 85.095652) scale(0.12 -0.12)">
     <use xlink:href="#DejaVuSans-41"/>
     <use xlink:href="#DejaVuSans-67" x="68.408203"/>
     <use xlink:href="#DejaVuSans-65" x="131.884766"/>
     <use xlink:href="#DejaVuSans-3a" x="193.408203"/>
     <use xlink:href="#DejaVuSans-20" x="227.099609"/>
     <use xlink:href="#DejaVuSans-32" x="258.886719"/>
     <use xlink:href="#DejaVuSans-30" x="322.509766"/>
    </g>
   </g>
  </g>
  <g id="axes_4">
   <g id="patch_11">
    <path d="M 1271.73913 212.4 
C 1271.73913 194.636214 1266.861645 177.208829 1257.640653 162.025766 
C 1248.419661 146.842702 1235.204407 134.479019 1219.441675 126.28827 
C 1203.678943 118.09752 1185.965744 114.38993 1168.241292 115.571399 
C 1150.516839 116.752869 1133.452444 122.778649 1118.916287 132.989049 
L 1174.695652 212.4 
z
" style="fill: #1f77b4"/>
   </g>
   <g id="patch_12">
    <path d="M 1118.916287 132.989049 
C 1105.097223 142.695754 1094.048301 155.843586 1086.866102 171.127652 
C 1079.683903 186.411718 1076.614163 203.309081 1077.961547 220.142714 
C 1079.308932 236.976347 1085.02734 253.170297 1094.549232 267.117347 
C 1104.071125 281.064397 1117.070715 292.287358 1132.257821 299.672374 
L 1174.695652 212.4 
z
" style="fill: #ff7f0e"/>
   </g>
   <g id="patch_13">
    <path d="M 1132.257821 299.672374 
C 1147.051383 306.866021 1163.433961 310.181435 1179.860511 309.305938 
C 1196.28706 308.430442 1212.224422 303.392451 1226.169539 294.6671 
C 1240.114655 285.941749 1251.614907 273.812237 1259.585704 259.422504 
C 1267.5565 245.03277 1271.73913 228.849864 1271.73913 212.4 
L 1174.695652 212.4 
z
" style="fill: #2ca02c"/>
   </g>
   <g id="matplotlib.axis_7"/>
   <g id="matplotlib.axis_8"/>
   <g id="text_13">
    <!-- 34.75 -->
    <g transform="translate(1187.229203 163.492337) scale(0.1 -0.1)">
     <defs>
      <path id="DejaVuSans-37" d="M 525 4666 
L 3525 4666 
L 3525 4397 
L 1831 0 
L 1172 0 
L 2766 4134 
L 525 4134 
L 525 4666 
z
" transform="scale(0.015625)"/>
     </defs>
     <use xlink:href="#DejaVuSans-33"/>
     <use xlink:href="#DejaVuSans-34" x="63.623047"/>
     <use xlink:href="#DejaVuSans-2e" x="127.246094"/>
     <use xlink:href="#DejaVuSans-37" x="159.033203"/>
     <use xlink:href="#DejaVuSans-35" x="222.65625"/>
    </g>
   </g>
   <g id="text_14">
    <!-- 33.05 -->
    <g transform="translate(1102.341127 219.805003) scale(0.1 -0.1)">
     <use xlink:href="#DejaVuSans-33"/>
     <use xlink:href="#DejaVuSans-33" x="63.623047"/>
     <use xlink:href="#DejaVuSans-2e" x="127.246094"/>
     <use xlink:href="#DejaVuSans-30" x="159.033203"/>
     <use xlink:href="#DejaVuSans-35" x="222.65625"/>
    </g>
   </g>
   <g id="text_15">
    <!-- 32.20 -->
    <g transform="translate(1191.265921 264.519635) scale(0.1 -0.1)">
     <use xlink:href="#DejaVuSans-33"/>
     <use xlink:href="#DejaVuSans-32" x="63.623047"/>
     <use xlink:href="#DejaVuSans-2e" x="127.246094"/>
     <use xlink:href="#DejaVuSans-32" x="159.033203"/>
     <use xlink:href="#DejaVuSans-30" x="222.65625"/>
    </g>
   </g>
   <g id="text_16">
    <!-- Age: 21 -->
    <g transform="translate(1151.527215 85.095652) scale(0.12 -0.12)">
     <use xlink:href="#DejaVuSans-41"/>
     <use xlink:href="#DejaVuSans-67" x="68.408203"/>
     <use xlink:href="#DejaVuSans-65" x="131.884766"/>
     <use xlink:href="#DejaVuSans-3a" x="193.408203"/>
     <use xlink:href="#DejaVuSans-20" x="227.099609"/>
     <use xlink:href="#DejaVuSans-32" x="258.886719"/>
     <use xlink:href="#DejaVuSans-31" x="322.509766"/>
    </g>
   </g>
  </g>
  <g id="axes_5">
   <g id="patch_14">
    <path d="M 398.347826 514.8 
C 398.347826 493.909077 391.601922 473.566332 379.11923 456.814823 
C 366.636538 440.063314 349.072149 427.78216 329.053509 421.808491 
C 309.03487 415.834823 287.612557 416.482137 267.991122 423.653603 
C 248.369686 430.82507 231.578861 444.14433 220.130374 461.618963 
L 301.304348 514.8 
z
" style="fill: #1f77b4"/>
   </g>
   <g id="patch_15">
    <path d="M 220.130374 461.618963 
C 211.521042 474.759994 206.230146 489.797197 204.713903 505.433958 
C 203.197661 521.07072 205.500942 536.844304 211.425141 551.394601 
C 217.34934 565.944899 226.719144 578.841326 238.726623 588.971862 
C 250.734102 599.102397 265.02392 606.167251 280.363909 609.557241 
L 301.304348 514.8 
z
" style="fill: #ff7f0e"/>
   </g>
   <g id="patch_16">
    <path d="M 280.363909 609.557241 
C 294.543575 612.690811 309.24744 612.601974 323.388209 609.2973 
C 337.528977 605.992626 350.749288 599.55563 362.071549 590.462302 
C 373.393809 581.368975 382.531888 569.84912 388.810058 556.754587 
C 395.088228 543.660055 398.347829 529.321765 398.347826 514.799982 
L 301.304348 514.8 
z
" style="fill: #2ca02c"/>
   </g>
   <g id="matplotlib.axis_9"/>
   <g id="matplotlib.axis_10"/>
   <g id="text_17">
    <!-- 40.77 -->
    <g transform="translate(303.639782 461.76447) scale(0.1 -0.1)">
     <use xlink:href="#DejaVuSans-34"/>
     <use xlink:href="#DejaVuSans-30" x="63.623047"/>
     <use xlink:href="#DejaVuSans-2e" x="127.246094"/>
     <use xlink:href="#DejaVuSans-37" x="159.033203"/>
     <use xlink:href="#DejaVuSans-37" x="222.65625"/>
    </g>
   </g>
   <g id="text_18">
    <!-- 30.77 -->
    <g transform="translate(233.062761 539.516136) scale(0.1 -0.1)">
     <use xlink:href="#DejaVuSans-33"/>
     <use xlink:href="#DejaVuSans-30" x="63.623047"/>
     <use xlink:href="#DejaVuSans-2e" x="127.246094"/>
     <use xlink:href="#DejaVuSans-37" x="159.033203"/>
     <use xlink:href="#DejaVuSans-37" x="222.65625"/>
    </g>
   </g>
   <g id="text_19">
    <!-- 28.46 -->
    <g transform="translate(323.450606 562.956756) scale(0.1 -0.1)">
     <use xlink:href="#DejaVuSans-32"/>
     <use xlink:href="#DejaVuSans-38" x="63.623047"/>
     <use xlink:href="#DejaVuSans-2e" x="127.246094"/>
     <use xlink:href="#DejaVuSans-34" x="159.033203"/>
     <use xlink:href="#DejaVuSans-36" x="222.65625"/>
    </g>
   </g>
   <g id="text_20">
    <!-- Age: 22 -->
    <g transform="translate(278.13591 387.495652) scale(0.12 -0.12)">
     <use xlink:href="#DejaVuSans-41"/>
     <use xlink:href="#DejaVuSans-67" x="68.408203"/>
     <use xlink:href="#DejaVuSans-65" x="131.884766"/>
     <use xlink:href="#DejaVuSans-3a" x="193.408203"/>
     <use xlink:href="#DejaVuSans-20" x="227.099609"/>
     <use xlink:href="#DejaVuSans-32" x="258.886719"/>
     <use xlink:href="#DejaVuSans-32" x="322.509766"/>
    </g>
   </g>
  </g>
  <g id="axes_6">
   <g id="patch_17">
    <path d="M 689.478261 514.8 
C 689.478261 497.228036 684.705545 479.981658 675.67175 464.909682 
C 666.637955 449.837705 653.677851 437.49866 638.180762 429.215293 
C 622.683672 420.931926 605.223883 417.011199 587.673085 417.873415 
C 570.122287 418.73563 553.130869 424.348836 538.520315 434.111297 
L 592.434783 514.8 
z
" style="fill: #1f77b4"/>
   </g>
   <g id="patch_18">
    <path d="M 538.520315 434.111297 
C 524.245641 443.649329 512.754452 456.806708 505.224287 472.235155 
C 497.694121 487.663601 494.391291 504.817475 495.654248 521.938961 
C 496.917205 539.060447 502.701283 555.544031 512.413769 569.700583 
C 522.126254 583.857135 535.423658 595.185998 550.943349 602.526265 
L 592.434783 514.8 
z
" style="fill: #ff7f0e"/>
   </g>
   <g id="patch_19">
    <path d="M 550.943349 602.526265 
C 565.733534 609.521502 582.055332 612.664123 598.38556 611.660853 
C 614.715788 610.657584 630.530148 605.540634 644.352813 596.787529 
C 658.175477 588.034423 669.562654 575.926189 677.451672 561.59279 
C 685.340689 547.259392 689.478261 531.161018 689.478261 514.8 
L 592.434783 514.8 
z
" style="fill: #2ca02c"/>
   </g>
   <g id="matplotlib.axis_11"/>
   <g id="matplotlib.axis_12"/>
   <g id="text_21">
    <!-- 34.38 -->
    <g transform="translate(605.568307 466.208551) scale(0.1 -0.1)">
     <use xlink:href="#DejaVuSans-33"/>
     <use xlink:href="#DejaVuSans-34" x="63.623047"/>
     <use xlink:href="#DejaVuSans-2e" x="127.246094"/>
     <use xlink:href="#DejaVuSans-33" x="159.033203"/>
     <use xlink:href="#DejaVuSans-38" x="222.65625"/>
    </g>
   </g>
   <g id="text_22">
    <!-- 33.59 -->
    <g transform="translate(520.052399 521.842752) scale(0.1 -0.1)">
     <use xlink:href="#DejaVuSans-33"/>
     <use xlink:href="#DejaVuSans-33" x="63.623047"/>
     <use xlink:href="#DejaVuSans-2e" x="127.246094"/>
     <use xlink:href="#DejaVuSans-35" x="159.033203"/>
     <use xlink:href="#DejaVuSans-39" x="222.65625"/>
    </g>
   </g>
   <g id="text_23">
    <!-- 32.03 -->
    <g transform="translate(609.271538 566.751892) scale(0.1 -0.1)">
     <use xlink:href="#DejaVuSans-33"/>
     <use xlink:href="#DejaVuSans-32" x="63.623047"/>
     <use xlink:href="#DejaVuSans-2e" x="127.246094"/>
     <use xlink:href="#DejaVuSans-30" x="159.033203"/>
     <use xlink:href="#DejaVuSans-33" x="222.65625"/>
    </g>
   </g>
   <g id="text_24">
    <!-- Age: 23 -->
    <g transform="translate(569.266345 387.495652) scale(0.12 -0.12)">
     <use xlink:href="#DejaVuSans-41"/>
     <use xlink:href="#DejaVuSans-67" x="68.408203"/>
     <use xlink:href="#DejaVuSans-65" x="131.884766"/>
     <use xlink:href="#DejaVuSans-3a" x="193.408203"/>
     <use xlink:href="#DejaVuSans-20" x="227.099609"/>
     <use xlink:href="#DejaVuSans-32" x="258.886719"/>
     <use xlink:href="#DejaVuSans-33" x="322.509766"/>
    </g>
   </g>
  </g>
  <g id="axes_7">
   <g id="patch_20">
    <path d="M 980.608696 514.8 
C 980.608696 497.132939 975.784182 479.796797 966.65778 464.669543 
C 957.531378 449.542289 944.444977 437.190615 928.816185 428.952539 
C 913.187394 420.714462 895.601692 416.898596 877.964083 417.918299 
C 860.326475 418.938003 843.297693 424.755077 828.722413 434.739376 
L 883.565217 514.8 
z
" style="fill: #1f77b4"/>
   </g>
   <g id="patch_21">
    <path d="M 828.722413 434.739376 
C 814.774359 444.294016 803.562361 457.329843 796.201658 472.550205 
C 788.840956 487.770567 785.58397 504.653509 786.75467 521.519713 
C 787.925369 538.385917 793.483606 554.656986 802.876512 568.714464 
C 812.269417 582.771942 825.174879 594.133753 840.309211 601.669757 
L 883.565217 514.8 
z
" style="fill: #ff7f0e"/>
   </g>
   <g id="patch_22">
    <path d="M 840.309211 601.669757 
C 855.10363 609.036503 871.537588 612.503207 888.047016 611.739931 
C 904.556444 610.976655 920.600431 606.008407 934.652023 597.30803 
C 948.703615 588.607653 960.302429 576.460204 968.344572 562.021793 
C 976.386715 547.583381 980.608696 531.327062 980.608696 514.8 
L 883.565217 514.8 
z
" style="fill: #2ca02c"/>
   </g>
   <g id="matplotlib.axis_13"/>
   <g id="matplotlib.axis_14"/>
   <g id="text_25">
    <!-- 34.56 -->
    <g transform="translate(896.401736 466.050898) scale(0.1 -0.1)">
     <use xlink:href="#DejaVuSans-33"/>
     <use xlink:href="#DejaVuSans-34" x="63.623047"/>
     <use xlink:href="#DejaVuSans-2e" x="127.246094"/>
     <use xlink:href="#DejaVuSans-35" x="159.033203"/>
     <use xlink:href="#DejaVuSans-36" x="222.65625"/>
    </g>
   </g>
   <g id="text_26">
    <!-- 33.09 -->
    <g transform="translate(811.164826 521.591203) scale(0.1 -0.1)">
     <use xlink:href="#DejaVuSans-33"/>
     <use xlink:href="#DejaVuSans-33" x="63.623047"/>
     <use xlink:href="#DejaVuSans-2e" x="127.246094"/>
     <use xlink:href="#DejaVuSans-30" x="159.033203"/>
     <use xlink:href="#DejaVuSans-39" x="222.65625"/>
    </g>
   </g>
   <g id="text_27">
    <!-- 32.35 -->
    <g transform="translate(899.903238 567.064193) scale(0.1 -0.1)">
     <use xlink:href="#DejaVuSans-33"/>
     <use xlink:href="#DejaVuSans-32" x="63.623047"/>
     <use xlink:href="#DejaVuSans-2e" x="127.246094"/>
     <use xlink:href="#DejaVuSans-33" x="159.033203"/>
     <use xlink:href="#DejaVuSans-35" x="222.65625"/>
    </g>
   </g>
   <g id="text_28">
    <!-- Age: 24 -->
    <g transform="translate(860.39678 387.495652) scale(0.12 -0.12)">
     <use xlink:href="#DejaVuSans-41"/>
     <use xlink:href="#DejaVuSans-67" x="68.408203"/>
     <use xlink:href="#DejaVuSans-65" x="131.884766"/>
     <use xlink:href="#DejaVuSans-3a" x="193.408203"/>
     <use xlink:href="#DejaVuSans-20" x="227.099609"/>
     <use xlink:href="#DejaVuSans-32" x="258.886719"/>
     <use xlink:href="#DejaVuSans-34" x="322.509766"/>
    </g>
   </g>
  </g>
  <g id="axes_8">
   <g id="patch_23">
    <path d="M 1271.73913 514.8 
C 1271.73913 496.458223 1266.539078 478.486881 1256.744638 462.979149 
C 1246.950198 447.471417 1232.956994 435.053692 1216.394853 427.172303 
C 1199.832713 419.290913 1181.370624 416.264208 1163.15892 418.444717 
C 1144.947215 420.625226 1127.721513 427.924873 1113.488139 439.493446 
L 1174.695652 514.8 
z
" style="fill: #1f77b4"/>
   </g>
   <g id="patch_24">
    <path d="M 1113.488139 439.493446 
C 1099.531927 450.836749 1088.999957 465.839497 1083.073154 482.819467 
C 1077.146351 499.799437 1076.054836 518.097346 1079.920999 535.66149 
C 1083.787162 553.225634 1092.46089 569.374049 1104.969618 582.29605 
C 1117.478346 595.218051 1133.336396 604.411913 1150.765641 608.84675 
L 1174.695652 514.8 
z
" style="fill: #ff7f0e"/>
   </g>
   <g id="patch_25">
    <path d="M 1150.765641 608.84675 
C 1165.090292 612.49163 1180.060146 612.816017 1194.529241 609.795081 
C 1208.998336 606.774145 1222.587796 600.486989 1234.25733 591.414902 
C 1245.926864 582.342816 1255.370902 570.723354 1261.866491 557.446002 
C 1268.362081 544.168649 1271.739133 529.581077 1271.73913 514.799982 
L 1174.695652 514.8 
z
" style="fill: #2ca02c"/>
   </g>
   <g id="matplotlib.axis_15"/>
   <g id="matplotlib.axis_16"/>
   <g id="text_29">
    <!-- 35.86 -->
    <g transform="translate(1185.40111 464.982757) scale(0.1 -0.1)">
     <use xlink:href="#DejaVuSans-33"/>
     <use xlink:href="#DejaVuSans-35" x="63.623047"/>
     <use xlink:href="#DejaVuSans-2e" x="127.246094"/>
     <use xlink:href="#DejaVuSans-38" x="159.033203"/>
     <use xlink:href="#DejaVuSans-36" x="222.65625"/>
    </g>
   </g>
   <g id="text_30">
    <!-- 35.17 -->
    <g transform="translate(1103.516798 530.076269) scale(0.1 -0.1)">
     <use xlink:href="#DejaVuSans-33"/>
     <use xlink:href="#DejaVuSans-35" x="63.623047"/>
     <use xlink:href="#DejaVuSans-2e" x="127.246094"/>
     <use xlink:href="#DejaVuSans-31" x="159.033203"/>
     <use xlink:href="#DejaVuSans-37" x="222.65625"/>
    </g>
   </g>
   <g id="text_31">
    <!-- 28.97 -->
    <g transform="translate(1196.118596 563.528316) scale(0.1 -0.1)">
     <use xlink:href="#DejaVuSans-32"/>
     <use xlink:href="#DejaVuSans-38" x="63.623047"/>
     <use xlink:href="#DejaVuSans-2e" x="127.246094"/>
     <use xlink:href="#DejaVuSans-39" x="159.033203"/>
     <use xlink:href="#DejaVuSans-37" x="222.65625"/>
    </g>
   </g>
   <g id="text_32">
    <!-- Age: 25 -->
    <g transform="translate(1151.527215 387.495652) scale(0.12 -0.12)">
     <use xlink:href="#DejaVuSans-41"/>
     <use xlink:href="#DejaVuSans-67" x="68.408203"/>
     <use xlink:href="#DejaVuSans-65" x="131.884766"/>
     <use xlink:href="#DejaVuSans-3a" x="193.408203"/>
     <use xlink:href="#DejaVuSans-20" x="227.099609"/>
     <use xlink:href="#DejaVuSans-32" x="258.886719"/>
     <use xlink:href="#DejaVuSans-35" x="322.509766"/>
    </g>
   </g>
   <g id="legend_1">
    <g id="patch_26">
     <path d="M 1214.08507 633.209348 
L 1291.947 633.209348 
Q 1293.105 633.209348 1293.105 632.051348 
L 1293.105 607.134445 
Q 1293.105 605.976445 1291.947 605.976445 
L 1214.08507 605.976445 
Q 1212.92707 605.976445 1212.92707 607.134445 
L 1212.92707 632.051348 
Q 1212.92707 633.209348 1214.08507 633.209348 
z
" style="fill: #ffffff; opacity: 0.8; stroke: #cccccc; stroke-linejoin: miter"/>
    </g>
    <g id="patch_27">
     <path d="M 1215.24307 612.69194 
L 1226.82307 612.69194 
L 1226.82307 608.63894 
L 1215.24307 608.63894 
z
" style="fill: #1f77b4"/>
    </g>
    <g id="text_33">
     <!-- Credit/Debit Card -->
     <g transform="translate(1231.45507 612.69194) scale(0.0579 -0.0579)">
      <defs>
       <path id="DejaVuSans-43" d="M 4122 4306 
L 4122 3641 
Q 3803 3938 3442 4084 
Q 3081 4231 2675 4231 
Q 1875 4231 1450 3742 
Q 1025 3253 1025 2328 
Q 1025 1406 1450 917 
Q 1875 428 2675 428 
Q 3081 428 3442 575 
Q 3803 722 4122 1019 
L 4122 359 
Q 3791 134 3420 21 
Q 3050 -91 2638 -91 
Q 1578 -91 968 557 
Q 359 1206 359 2328 
Q 359 3453 968 4101 
Q 1578 4750 2638 4750 
Q 3056 4750 3426 4639 
Q 3797 4528 4122 4306 
z
" transform="scale(0.015625)"/>
       <path id="DejaVuSans-72" d="M 2631 2963 
Q 2534 3019 2420 3045 
Q 2306 3072 2169 3072 
Q 1681 3072 1420 2755 
Q 1159 2438 1159 1844 
L 1159 0 
L 581 0 
L 581 3500 
L 1159 3500 
L 1159 2956 
Q 1341 3275 1631 3429 
Q 1922 3584 2338 3584 
Q 2397 3584 2469 3576 
Q 2541 3569 2628 3553 
L 2631 2963 
z
" transform="scale(0.015625)"/>
       <path id="DejaVuSans-64" d="M 2906 2969 
L 2906 4863 
L 3481 4863 
L 3481 0 
L 2906 0 
L 2906 525 
Q 2725 213 2448 61 
Q 2172 -91 1784 -91 
Q 1150 -91 751 415 
Q 353 922 353 1747 
Q 353 2572 751 3078 
Q 1150 3584 1784 3584 
Q 2172 3584 2448 3432 
Q 2725 3281 2906 2969 
z
M 947 1747 
Q 947 1113 1208 752 
Q 1469 391 1925 391 
Q 2381 391 2643 752 
Q 2906 1113 2906 1747 
Q 2906 2381 2643 2742 
Q 2381 3103 1925 3103 
Q 1469 3103 1208 2742 
Q 947 2381 947 1747 
z
" transform="scale(0.015625)"/>
       <path id="DejaVuSans-69" d="M 603 3500 
L 1178 3500 
L 1178 0 
L 603 0 
L 603 3500 
z
M 603 4863 
L 1178 4863 
L 1178 4134 
L 603 4134 
L 603 4863 
z
" transform="scale(0.015625)"/>
       <path id="DejaVuSans-74" d="M 1172 4494 
L 1172 3500 
L 2356 3500 
L 2356 3053 
L 1172 3053 
L 1172 1153 
Q 1172 725 1289 603 
Q 1406 481 1766 481 
L 2356 481 
L 2356 0 
L 1766 0 
Q 1100 0 847 248 
Q 594 497 594 1153 
L 594 3053 
L 172 3053 
L 172 3500 
L 594 3500 
L 594 4494 
L 1172 4494 
z
" transform="scale(0.015625)"/>
       <path id="DejaVuSans-2f" d="M 1625 4666 
L 2156 4666 
L 531 -594 
L 0 -594 
L 1625 4666 
z
" transform="scale(0.015625)"/>
       <path id="DejaVuSans-44" d="M 1259 4147 
L 1259 519 
L 2022 519 
Q 2988 519 3436 956 
Q 3884 1394 3884 2338 
Q 3884 3275 3436 3711 
Q 2988 4147 2022 4147 
L 1259 4147 
z
M 628 4666 
L 1925 4666 
Q 3281 4666 3915 4102 
Q 4550 3538 4550 2338 
Q 4550 1131 3912 565 
Q 3275 0 1925 0 
L 628 0 
L 628 4666 
z
" transform="scale(0.015625)"/>
       <path id="DejaVuSans-62" d="M 3116 1747 
Q 3116 2381 2855 2742 
Q 2594 3103 2138 3103 
Q 1681 3103 1420 2742 
Q 1159 2381 1159 1747 
Q 1159 1113 1420 752 
Q 1681 391 2138 391 
Q 2594 391 2855 752 
Q 3116 1113 3116 1747 
z
M 1159 2969 
Q 1341 3281 1617 3432 
Q 1894 3584 2278 3584 
Q 2916 3584 3314 3078 
Q 3713 2572 3713 1747 
Q 3713 922 3314 415 
Q 2916 -91 2278 -91 
Q 1894 -91 1617 61 
Q 1341 213 1159 525 
L 1159 0 
L 581 0 
L 581 4863 
L 1159 4863 
L 1159 2969 
z
" transform="scale(0.015625)"/>
       <path id="DejaVuSans-61" d="M 2194 1759 
Q 1497 1759 1228 1600 
Q 959 1441 959 1056 
Q 959 750 1161 570 
Q 1363 391 1709 391 
Q 2188 391 2477 730 
Q 2766 1069 2766 1631 
L 2766 1759 
L 2194 1759 
z
M 3341 1997 
L 3341 0 
L 2766 0 
L 2766 531 
Q 2569 213 2275 61 
Q 1981 -91 1556 -91 
Q 1019 -91 701 211 
Q 384 513 384 1019 
Q 384 1609 779 1909 
Q 1175 2209 1959 2209 
L 2766 2209 
L 2766 2266 
Q 2766 2663 2505 2880 
Q 2244 3097 1772 3097 
Q 1472 3097 1187 3025 
Q 903 2953 641 2809 
L 641 3341 
Q 956 3463 1253 3523 
Q 1550 3584 1831 3584 
Q 2591 3584 2966 3190 
Q 3341 2797 3341 1997 
z
" transform="scale(0.015625)"/>
      </defs>
      <use xlink:href="#DejaVuSans-43"/>
      <use xlink:href="#DejaVuSans-72" x="69.824219"/>
      <use xlink:href="#DejaVuSans-65" x="108.6875"/>
      <use xlink:href="#DejaVuSans-64" x="170.210938"/>
      <use xlink:href="#DejaVuSans-69" x="233.6875"/>
      <use xlink:href="#DejaVuSans-74" x="261.470703"/>
      <use xlink:href="#DejaVuSans-2f" x="300.679688"/>
      <use xlink:href="#DejaVuSans-44" x="334.371094"/>
      <use xlink:href="#DejaVuSans-65" x="411.373047"/>
      <use xlink:href="#DejaVuSans-62" x="472.896484"/>
      <use xlink:href="#DejaVuSans-69" x="536.373047"/>
      <use xlink:href="#DejaVuSans-74" x="564.15625"/>
      <use xlink:href="#DejaVuSans-20" x="603.365234"/>
      <use xlink:href="#DejaVuSans-43" x="635.152344"/>
      <use xlink:href="#DejaVuSans-61" x="704.976562"/>
      <use xlink:href="#DejaVuSans-72" x="766.255859"/>
      <use xlink:href="#DejaVuSans-64" x="805.619141"/>
     </g>
    </g>
    <g id="patch_28">
     <path d="M 1215.24307 621.190574 
L 1226.82307 621.190574 
L 1226.82307 617.137574 
L 1215.24307 617.137574 
z
" style="fill: #ff7f0e"/>
    </g>
    <g id="text_34">
     <!-- Mobile Payment App -->
     <g transform="translate(1231.45507 621.190574) scale(0.0579 -0.0579)">
      <defs>
       <path id="DejaVuSans-4d" d="M 628 4666 
L 1569 4666 
L 2759 1491 
L 3956 4666 
L 4897 4666 
L 4897 0 
L 4281 0 
L 4281 4097 
L 3078 897 
L 2444 897 
L 1241 4097 
L 1241 0 
L 628 0 
L 628 4666 
z
" transform="scale(0.015625)"/>
       <path id="DejaVuSans-6f" d="M 1959 3097 
Q 1497 3097 1228 2736 
Q 959 2375 959 1747 
Q 959 1119 1226 758 
Q 1494 397 1959 397 
Q 2419 397 2687 759 
Q 2956 1122 2956 1747 
Q 2956 2369 2687 2733 
Q 2419 3097 1959 3097 
z
M 1959 3584 
Q 2709 3584 3137 3096 
Q 3566 2609 3566 1747 
Q 3566 888 3137 398 
Q 2709 -91 1959 -91 
Q 1206 -91 779 398 
Q 353 888 353 1747 
Q 353 2609 779 3096 
Q 1206 3584 1959 3584 
z
" transform="scale(0.015625)"/>
       <path id="DejaVuSans-6c" d="M 603 4863 
L 1178 4863 
L 1178 0 
L 603 0 
L 603 4863 
z
" transform="scale(0.015625)"/>
       <path id="DejaVuSans-50" d="M 1259 4147 
L 1259 2394 
L 2053 2394 
Q 2494 2394 2734 2622 
Q 2975 2850 2975 3272 
Q 2975 3691 2734 3919 
Q 2494 4147 2053 4147 
L 1259 4147 
z
M 628 4666 
L 2053 4666 
Q 2838 4666 3239 4311 
Q 3641 3956 3641 3272 
Q 3641 2581 3239 2228 
Q 2838 1875 2053 1875 
L 1259 1875 
L 1259 0 
L 628 0 
L 628 4666 
z
" transform="scale(0.015625)"/>
       <path id="DejaVuSans-79" d="M 2059 -325 
Q 1816 -950 1584 -1140 
Q 1353 -1331 966 -1331 
L 506 -1331 
L 506 -850 
L 844 -850 
Q 1081 -850 1212 -737 
Q 1344 -625 1503 -206 
L 1606 56 
L 191 3500 
L 800 3500 
L 1894 763 
L 2988 3500 
L 3597 3500 
L 2059 -325 
z
" transform="scale(0.015625)"/>
       <path id="DejaVuSans-6d" d="M 3328 2828 
Q 3544 3216 3844 3400 
Q 4144 3584 4550 3584 
Q 5097 3584 5394 3201 
Q 5691 2819 5691 2113 
L 5691 0 
L 5113 0 
L 5113 2094 
Q 5113 2597 4934 2840 
Q 4756 3084 4391 3084 
Q 3944 3084 3684 2787 
Q 3425 2491 3425 1978 
L 3425 0 
L 2847 0 
L 2847 2094 
Q 2847 2600 2669 2842 
Q 2491 3084 2119 3084 
Q 1678 3084 1418 2786 
Q 1159 2488 1159 1978 
L 1159 0 
L 581 0 
L 581 3500 
L 1159 3500 
L 1159 2956 
Q 1356 3278 1631 3431 
Q 1906 3584 2284 3584 
Q 2666 3584 2933 3390 
Q 3200 3197 3328 2828 
z
" transform="scale(0.015625)"/>
       <path id="DejaVuSans-6e" d="M 3513 2113 
L 3513 0 
L 2938 0 
L 2938 2094 
Q 2938 2591 2744 2837 
Q 2550 3084 2163 3084 
Q 1697 3084 1428 2787 
Q 1159 2491 1159 1978 
L 1159 0 
L 581 0 
L 581 3500 
L 1159 3500 
L 1159 2956 
Q 1366 3272 1645 3428 
Q 1925 3584 2291 3584 
Q 2894 3584 3203 3211 
Q 3513 2838 3513 2113 
z
" transform="scale(0.015625)"/>
       <path id="DejaVuSans-70" d="M 1159 525 
L 1159 -1331 
L 581 -1331 
L 581 3500 
L 1159 3500 
L 1159 2969 
Q 1341 3281 1617 3432 
Q 1894 3584 2278 3584 
Q 2916 3584 3314 3078 
Q 3713 2572 3713 1747 
Q 3713 922 3314 415 
Q 2916 -91 2278 -91 
Q 1894 -91 1617 61 
Q 1341 213 1159 525 
z
M 3116 1747 
Q 3116 2381 2855 2742 
Q 2594 3103 2138 3103 
Q 1681 3103 1420 2742 
Q 1159 2381 1159 1747 
Q 1159 1113 1420 752 
Q 1681 391 2138 391 
Q 2594 391 2855 752 
Q 3116 1113 3116 1747 
z
" transform="scale(0.015625)"/>
      </defs>
      <use xlink:href="#DejaVuSans-4d"/>
      <use xlink:href="#DejaVuSans-6f" x="86.279297"/>
      <use xlink:href="#DejaVuSans-62" x="147.460938"/>
      <use xlink:href="#DejaVuSans-69" x="210.9375"/>
      <use xlink:href="#DejaVuSans-6c" x="238.720703"/>
      <use xlink:href="#DejaVuSans-65" x="266.503906"/>
      <use xlink:href="#DejaVuSans-20" x="328.027344"/>
      <use xlink:href="#DejaVuSans-50" x="359.814453"/>
      <use xlink:href="#DejaVuSans-61" x="415.617188"/>
      <use xlink:href="#DejaVuSans-79" x="476.896484"/>
      <use xlink:href="#DejaVuSans-6d" x="536.076172"/>
      <use xlink:href="#DejaVuSans-65" x="633.488281"/>
      <use xlink:href="#DejaVuSans-6e" x="695.011719"/>
      <use xlink:href="#DejaVuSans-74" x="758.390625"/>
      <use xlink:href="#DejaVuSans-20" x="797.599609"/>
      <use xlink:href="#DejaVuSans-41" x="829.386719"/>
      <use xlink:href="#DejaVuSans-70" x="897.794922"/>
      <use xlink:href="#DejaVuSans-70" x="961.271484"/>
     </g>
    </g>
    <g id="patch_29">
     <path d="M 1215.24307 629.689209 
L 1226.82307 629.689209 
L 1226.82307 625.636209 
L 1215.24307 625.636209 
z
" style="fill: #2ca02c"/>
    </g>
    <g id="text_35">
     <!-- Cash -->
     <g transform="translate(1231.45507 629.689209) scale(0.0579 -0.0579)">
      <defs>
       <path id="DejaVuSans-73" d="M 2834 3397 
L 2834 2853 
Q 2591 2978 2328 3040 
Q 2066 3103 1784 3103 
Q 1356 3103 1142 2972 
Q 928 2841 928 2578 
Q 928 2378 1081 2264 
Q 1234 2150 1697 2047 
L 1894 2003 
Q 2506 1872 2764 1633 
Q 3022 1394 3022 966 
Q 3022 478 2636 193 
Q 2250 -91 1575 -91 
Q 1294 -91 989 -36 
Q 684 19 347 128 
L 347 722 
Q 666 556 975 473 
Q 1284 391 1588 391 
Q 1994 391 2212 530 
Q 2431 669 2431 922 
Q 2431 1156 2273 1281 
Q 2116 1406 1581 1522 
L 1381 1569 
Q 847 1681 609 1914 
Q 372 2147 372 2553 
Q 372 3047 722 3315 
Q 1072 3584 1716 3584 
Q 2034 3584 2315 3537 
Q 2597 3491 2834 3397 
z
" transform="scale(0.015625)"/>
       <path id="DejaVuSans-68" d="M 3513 2113 
L 3513 0 
L 2938 0 
L 2938 2094 
Q 2938 2591 2744 2837 
Q 2550 3084 2163 3084 
Q 1697 3084 1428 2787 
Q 1159 2491 1159 1978 
L 1159 0 
L 581 0 
L 581 4863 
L 1159 4863 
L 1159 2956 
Q 1366 3272 1645 3428 
Q 1925 3584 2291 3584 
Q 2894 3584 3203 3211 
Q 3513 2838 3513 2113 
z
" transform="scale(0.015625)"/>
      </defs>
      <use xlink:href="#DejaVuSans-43"/>
      <use xlink:href="#DejaVuSans-61" x="69.824219"/>
      <use xlink:href="#DejaVuSans-73" x="131.103516"/>
      <use xlink:href="#DejaVuSans-68" x="183.203125"/>
     </g>
    </g>
   </g>
  </g>
 </g>
</svg>
